<?xml version="1.0" encoding="utf-8"?>
<!-- Generator: Adobe Illustrator 16.0.0, SVG Export Plug-In . SVG Version: 6.00 Build 0)  -->
<!DOCTYPE svg PUBLIC "-//W3C//DTD SVG 1.1//EN" "http://www.w3.org/Graphics/SVG/1.1/DTD/svg11.dtd">
<svg version="1.1" xmlns="http://www.w3.org/2000/svg" xmlns:xlink="http://www.w3.org/1999/xlink" x="0px" y="0px" width="200px"
	 height="160px" viewBox="0 0 200 160" enable-background="new 0 0 200 160" xml:space="preserve">
<g id="Layer_1">
</g>
<g id="Layer_2">
	<g>
		<path fill-rule="evenodd" clip-rule="evenodd" d="M50.527,40.461c-1.536,2.066-3.549,3.553-5.774,4.747
			c-4.629,2.484-9.511,3.746-14.762,2.576c-4.584-1.021-7.761-3.826-9.595-8.12c-0.732-1.712-0.826-3.485,0.005-5.228
			c0.532-1.115,1.502-1.759,2.51-2.367c1.656-1,3.426-1.855,4.943-3.035c2.953-2.296,4.635-5.428,5.305-9.103
			c0.163-0.898,0.328-1.795,0.456-2.698c0.568-4.016,3.602-5.185,6.428-4.969c5.369,0.412,9.359,3.083,11.565,7.988
			c2.887,6.416,2.498,12.867-0.45,19.199C50.991,39.811,50.737,40.13,50.527,40.461z"/>
		<path fill-rule="evenodd" clip-rule="evenodd" d="M64.459,48.57c-2.226-1.384-4.241-3.006-5.482-5.376
			c-0.406-0.774-0.764-1.607-0.955-2.455c-0.768-3.395,1.255-6.003,4.742-6.209c1.736-0.103,3.364,0.344,4.819,1.221
			c4.936,2.971,7.817,7.283,8.267,13.096c0.048,0.613-0.025,1.259-0.167,1.861c-0.436,1.844-1.982,2.759-3.77,2.14
			c-1.176-0.408-2.283-1.02-3.398-1.584c-0.634-0.321-1.237-0.708-1.829-1.105C65.93,49.649,65.201,49.101,64.459,48.57z"/>
		<path fill-rule="evenodd" clip-rule="evenodd" d="M62.797,50.97c1.796,1.575,3.666,3.075,5.375,4.741
			c2.583,2.514,1.949,4.964-1.469,6.072c-5.593,1.813-13.125-0.512-16.588-5.126c-0.873-1.164-1.447-2.451-1.524-3.923
			c-0.146-2.784,1.486-4.779,4.25-5.166c2.636-0.37,5.024,0.405,7.255,1.719c0.904,0.534,1.722,1.215,2.579,1.829
			C62.716,51.067,62.757,51.018,62.797,50.97z"/>
		<path fill-rule="evenodd" clip-rule="evenodd" d="M66.014,20.175c2.591,2.024,4.852,3.938,6.547,6.421
			c0.814,1.193,1.448,2.466,1.442,3.958c-0.009,1.978-0.916,2.983-2.892,3.067c-3.179,0.135-6.14-0.814-9.025-2.01
			c-2.188-0.908-4.132-2.186-5.593-4.102c-1.181-1.55-1.791-3.295-1.766-5.251c0.027-2.095,1.215-3.653,3.24-4.197
			c2.108-0.568,4.071-0.041,5.953,0.893C64.734,19.359,65.496,19.869,66.014,20.175z"/>
		<path fill-rule="evenodd" clip-rule="evenodd" d="M37.008,62.218c-2.302-1.605-3.86-3.122-4.794-5.184
			c-1.539-3.4-0.006-6.378,3.679-6.983c1.07-0.176,2.229-0.139,3.297,0.066c2.619,0.504,4.66,2.062,6.429,3.977
			c1.824,1.975,3.368,4.155,4.473,6.62c0.266,0.593,0.478,1.224,0.622,1.858c0.345,1.519-0.173,2.518-1.599,3.183
			c-1.543,0.72-3.116,0.526-4.679,0.096C41.542,65.053,39.009,63.523,37.008,62.218z"/>
	</g>
	<g>
		<path fill-rule="evenodd" clip-rule="evenodd" d="M114.556,68.148c-1.723,1.913-3.866,3.205-6.194,4.185
			c-4.842,2.04-9.82,2.841-14.938,1.184c-4.468-1.445-7.37-4.535-8.794-8.981c-0.569-1.773-0.496-3.547,0.495-5.206
			c0.634-1.059,1.66-1.61,2.721-2.121c1.742-0.841,3.584-1.526,5.206-2.559c3.154-2.011,5.124-4.97,6.132-8.566
			c0.246-0.878,0.495-1.756,0.706-2.643c0.942-3.945,4.072-4.826,6.865-4.346c5.308,0.912,9.03,3.946,10.768,9.035
			c2.273,6.658,1.284,13.044-2.244,19.072C115.076,67.544,114.794,67.839,114.556,68.148z"/>
		<path fill-rule="evenodd" clip-rule="evenodd" d="M127.666,77.524c-2.085-1.584-3.941-3.389-4.952-5.865
			c-0.333-0.809-0.612-1.671-0.722-2.534c-0.448-3.453,1.81-5.86,5.3-5.738c1.738,0.06,3.316,0.657,4.685,1.667
			c4.638,3.419,7.102,7.982,7.004,13.811c-0.009,0.615-0.142,1.252-0.339,1.838c-0.604,1.795-2.23,2.561-3.954,1.776
			c-1.131-0.514-2.176-1.227-3.234-1.893c-0.601-0.379-1.166-0.821-1.718-1.272C129.03,78.737,128.354,78.124,127.666,77.524z"/>
		<path fill-rule="evenodd" clip-rule="evenodd" d="M125.787,79.76c1.642,1.734,3.363,3.404,4.907,5.223
			c2.337,2.744,1.477,5.125-2.028,5.908c-5.74,1.281-13.021-1.736-16.037-6.656c-0.76-1.24-1.209-2.576-1.148-4.049
			c0.115-2.785,1.927-4.618,4.715-4.746c2.66-0.122,4.964,0.873,7.063,2.391c0.85,0.616,1.601,1.372,2.396,2.062
			C125.698,79.847,125.742,79.803,125.787,79.76z"/>
		<path fill-rule="evenodd" clip-rule="evenodd" d="M131.873,49.401c2.389,2.258,4.461,4.374,5.916,7.006
			c0.698,1.264,1.211,2.589,1.066,4.074c-0.195,1.97-1.193,2.885-3.165,2.783c-3.178-0.162-6.039-1.383-8.8-2.844
			c-2.092-1.109-3.908-2.564-5.185-4.608c-1.029-1.654-1.474-3.447-1.267-5.393c0.224-2.085,1.551-3.524,3.62-3.877
			c2.15-0.367,4.055,0.34,5.842,1.447C130.673,48.469,131.382,49.048,131.873,49.401z"/>
		<path fill-rule="evenodd" clip-rule="evenodd" d="M99.059,88.545c-2.142-1.814-3.551-3.469-4.288-5.611
			c-1.214-3.527,0.591-6.349,4.315-6.606c1.084-0.075,2.234,0.07,3.277,0.375c2.561,0.747,4.445,2.489,6.03,4.56
			c1.628,2.139,2.962,4.455,3.831,7.012c0.212,0.615,0.362,1.264,0.446,1.906c0.201,1.545-0.407,2.492-1.889,3.021
			c-1.604,0.572-3.152,0.232-4.667-0.344C103.308,91.791,100.93,90.031,99.059,88.545z"/>
	</g>
	<g>
		<path fill-rule="evenodd" clip-rule="evenodd" d="M156.265,126.785c-1.724,1.688-3.806,2.771-6.043,3.552
			c-4.649,1.626-9.357,2.083-14.052,0.233c-4.097-1.614-6.631-4.677-7.704-8.923c-0.428-1.691-0.256-3.349,0.769-4.843
			c0.656-0.953,1.648-1.41,2.672-1.826c1.68-0.684,3.443-1.219,5.021-2.09c3.071-1.695,5.087-4.352,6.243-7.657
			c0.281-0.809,0.565-1.615,0.815-2.434c1.113-3.637,4.094-4.278,6.68-3.665c4.914,1.165,8.222,4.223,9.55,9.087
			c1.737,6.368,0.437,12.285-3.22,17.722C156.789,126.249,156.507,126.51,156.265,126.785z"/>
		<path fill-rule="evenodd" clip-rule="evenodd" d="M167.988,136.33c-1.859-1.606-3.49-3.405-4.294-5.782
			c-0.264-0.774-0.474-1.6-0.526-2.414c-0.217-3.258,2.039-5.377,5.299-5.06c1.623,0.158,3.064,0.811,4.286,1.835
			c4.139,3.473,6.179,7.887,5.747,13.339c-0.045,0.574-0.208,1.163-0.428,1.699c-0.67,1.644-2.237,2.268-3.803,1.431
			c-1.029-0.548-1.965-1.278-2.918-1.965c-0.54-0.387-1.043-0.834-1.531-1.289C169.192,137.544,168.597,136.931,167.988,136.33z"/>
		<path fill-rule="evenodd" clip-rule="evenodd" d="M166.098,138.31c1.435,1.721,2.947,3.383,4.289,5.179
			c2.022,2.705,1.079,4.881-2.247,5.407c-5.447,0.865-12.085-2.388-14.62-7.169c-0.638-1.204-0.981-2.479-0.839-3.856
			c0.271-2.6,2.074-4.209,4.69-4.168c2.497,0.045,4.597,1.11,6.472,2.654c0.76,0.626,1.418,1.376,2.122,2.069
			C166.01,138.388,166.052,138.348,166.098,138.31z"/>
		<path fill-rule="evenodd" clip-rule="evenodd" d="M173.573,110.253c2.104,2.252,3.919,4.354,5.127,6.9
			c0.579,1.227,0.982,2.497,0.76,3.879c-0.298,1.831-1.286,2.63-3.128,2.419c-2.965-0.338-5.569-1.649-8.067-3.178
			c-1.895-1.158-3.51-2.628-4.582-4.616c-0.868-1.608-1.178-3.314-0.869-5.123c0.33-1.937,1.658-3.206,3.613-3.415
			c2.035-0.219,3.778,0.556,5.384,1.696C172.506,109.308,173.137,109.893,173.573,110.253z"/>
		<path fill-rule="evenodd" clip-rule="evenodd" d="M140.565,144.966c-1.898-1.823-3.121-3.455-3.686-5.501
			c-0.93-3.376,0.926-5.911,4.428-5.933c1.018-0.008,2.086,0.195,3.046,0.542c2.353,0.852,4.015,2.59,5.375,4.624
			c1.4,2.096,2.514,4.342,3.178,6.785c0.159,0.59,0.263,1.204,0.304,1.812c0.097,1.457-0.526,2.309-1.944,2.717
			c-1.535,0.442-2.964,0.032-4.35-0.595C144.352,148.255,142.229,146.469,140.565,144.966z"/>
	</g>
	<g>
	</g>
	<g>
	</g>
	<g>
	</g>
	<g>
	</g>
	<g>
	</g>
	<g>
	</g>
</g>
</svg>
