<?xml version="1.0" encoding="utf-8"?>
<!-- Generator: Adobe Illustrator 16.0.0, SVG Export Plug-In . SVG Version: 6.00 Build 0)  -->
<!DOCTYPE svg PUBLIC "-//W3C//DTD SVG 1.1//EN" "http://www.w3.org/Graphics/SVG/1.1/DTD/svg11.dtd">
<svg version="1.1" xmlns="http://www.w3.org/2000/svg" xmlns:xlink="http://www.w3.org/1999/xlink" x="0px" y="0px" width="300px"
	 height="300px" viewBox="0 0 300 300" enable-background="new 0 0 300 300" xml:space="preserve">
<g id="Layer_1" display="none">
	<g display="inline">
		<path fill-rule="evenodd" clip-rule="evenodd" fill="#FFFFFF" d="M-65.375-20.73c164.099,0,328.196,0,492.375,0
			c0,109.336,0,218.69,0,328.166c-164.074,0-328.225,0-492.375,0C-65.375,198.102-65.375,88.694-65.375-20.73z M69.926,211.041
			c0.999,2.48,1.67,3.893,2.141,5.365c2.449,7.646,4.696,15.356,7.295,22.945c3.058,8.923,7.429,11.729,16.652,10.944
			c1.234-0.105,3.176-1.021,3.395-1.901c0.367-1.482-0.055-3.421-0.789-4.829c-0.537-1.034-2.298-1.357-3.183-2.305
			c-1.945-2.089-4.171-4.143-5.372-6.644c-1.241-2.583-1.333-5.7-2.063-8.549c-1.083-4.221,0.069-7.874,3.291-10.507
			c3.707-3.024,7.524-6.172,11.8-8.195c17.996-8.52,23.991-25.561,31.188-42.086c-1.186-0.232-1.896-0.371-3.157-0.615
			c11.529-1.219,21.663,1.214,31.691,5.743c8.742,3.947,17.945,7.021,27.179,9.693c8.189,2.365,16.708,3.413,25.592,2.486
			c-1.415-8.706-1.313-17.603-9.246-23.513c5.078,2.915,8.041,7.146,8.849,12.813c0.816,5.7,1.887,11.378,2.387,17.107
			c1.078,12.343,3.962,24.713-0.251,37.07c-0.448,1.319-0.096,3.529,0.782,4.574c3.912,4.649,4.702,10.355,6.162,15.899
			c1.621,6.146,4.319,8.124,10.861,8.667c7.409,0.616,8.26,0.158,11.468-6.247c0.637,0.078,1.29,0.196,1.956,0.234
			c2.563,0.165,5.405,0.498,6.489-2.537c1.143-3.198-0.538-5.415-3.423-6.748c-4.216-1.947-4.907-5.536-4.917-9.682
			c-0.046-16.977,2.537-33.622,6.025-50.166c1.656-7.855,2.441-16.018,5.113-23.509c3.452-9.686,5.42-19.351,4.335-29.511
			c-1.506-14.118,5.969-23.987,15.355-32.814c6.726-6.319,15.078-8.607,24.315-8.861c9.858-0.271,17.51-4.723,21.356-14.292
			c1.984-4.929,0.498-7.683-4.675-8.871c-4.173-0.959-8.432-1.541-12.59-2.539c-3.979-0.956-7.396-2.603-9.43-6.727
			c-1.204-2.451-3.32-4.805-5.612-6.306c-9.145-5.993-19.223-6.633-29.765-4.668c-4.715,0.881-8.642,2.618-11.588,6.454
			c-6.531,8.5-13.218,16.881-19.614,25.479c-6.048,8.129-13.48,14.438-22.613,18.844c-4.813,2.329-9.687,4.644-14.14,7.564
			c-9.178,6.014-19.269,9.646-29.981,10.791c-18.113,1.932-36.305,3.092-54.477,4.46c-5.501,0.414-9.456-2.023-10.68-7.671
			c-1.146-5.269-2.19-11.103-1.087-16.217c4.97-23.052,15.526-42.42,38.174-52.932c1.535-0.712,2.626-2.375,3.922-3.596
			c-1.604-1.023-3.081-2.526-4.829-2.993c-9.116-2.424-17.255,0.28-23.725,6.535C87.82,60.599,76.144,86.31,84.797,118.377
			c2.037,7.538,0.839,14.063-4.567,19.695c-5.665,5.903-8.399,13.143-10.56,20.893c-3.051,10.936-6.555,21.766-10.327,32.479
			c-2.367,6.725-7.164,11.771-12.959,15.984c-1.866,1.359-3.751,3.736-4.132,5.91c-1.8,10.28-3.254,20.63-4.479,30.997
			c-0.615,5.183,2.888,10.451,6.915,10.885c3.314,0.353,6.692,0.208,10.039,0.117c2.725-0.072,3.589-2.193,2.881-4.191
			c-0.537-1.508-2.501-2.473-3.693-3.799c-1.215-1.353-3.418-3.075-3.189-4.247c1.054-5.441,1.716-11.44,4.567-15.941
			C59.001,221.312,64.642,216.691,69.926,211.041z"/>
		<path fill-rule="evenodd" clip-rule="evenodd" fill="#FFFFFF" d="M240.753,178.718c-4.81,19.269-3.376,39.112-6.562,58.652
			c0-4.053-0.209-8.118,0.043-12.156c0.563-8.926,1.13-17.86,2.128-26.739c0.754-6.69,2.188-13.304,3.317-19.951
			C240.036,178.59,240.394,178.652,240.753,178.718z"/>
		<path fill-rule="evenodd" clip-rule="evenodd" fill="#FFFFFF" d="M278.724,67.151c3.493,5.419,4.342,11.165,2.4,17.25
			c-1.101,3.448-3.514,5.553-7.141,6.273c-5.456,1.081-19.027-4.985-20.298-9.646c3.969,2.271,8.244,5.432,13.028,7.305
			c8.766,3.435,14.188-0.505,14.057-9.985C280.718,74.727,279.487,71.122,278.724,67.151z"/>
		<path fill-rule="evenodd" clip-rule="evenodd" fill="#FFFFFF" d="M88.707,197.211c9.757-12.407,19.678-24.655,35.198-30.265
			C109.204,173.558,99.506,186.01,88.707,197.211z"/>
	</g>
</g>
<g id="Layer_2">
	<path fill-rule="evenodd" clip-rule="evenodd" fill="#414042" d="M39.603,209.534c-5.238,5.693-10.841,10.359-14.501,16.236
		c-2.815,4.524-3.428,10.528-4.438,15.979c-0.22,1.174,1.998,2.878,3.224,4.221c1.202,1.317,3.174,2.266,3.724,3.77
		c0.724,1.992-0.123,4.119-2.847,4.214c-3.345,0.118-6.722,0.29-10.039-0.035c-4.03-0.401-7.577-5.641-7.003-10.829
		c1.141-10.376,2.511-20.738,4.228-31.032c0.363-2.177,2.229-4.569,4.084-5.943c5.762-4.261,10.517-9.346,12.83-16.089
		c3.685-10.744,7.1-21.602,10.062-32.562c2.098-7.768,4.773-15.029,10.39-20.979c5.36-5.676,6.505-12.209,4.407-19.731
		c-8.913-31.996,2.554-57.801,25.049-79.903c6.419-6.307,14.536-9.077,23.671-6.727c1.752,0.453,3.241,1.943,4.853,2.954
		c-1.285,1.232-2.363,2.903-3.893,3.628C80.84,47.4,70.441,66.854,65.659,89.945c-1.062,5.123,0.03,10.949,1.219,16.208
		c1.27,5.638,5.244,8.042,10.742,7.584c18.16-1.515,36.341-2.823,54.438-4.901c10.704-1.232,20.765-4.945,29.894-11.033
		c4.43-2.957,9.283-5.311,14.077-7.679c9.097-4.481,16.479-10.849,22.459-19.027c6.326-8.649,12.946-17.085,19.408-25.637
		c2.914-3.86,6.828-5.628,11.535-6.548c10.524-2.051,20.607-1.493,29.801,4.426c2.306,1.483,4.439,3.819,5.664,6.261
		c2.066,4.106,5.498,5.726,9.483,6.649c4.167,0.965,8.429,1.511,12.61,2.437c5.182,1.146,6.69,3.887,4.745,8.833
		c-3.767,9.6-11.384,14.114-21.238,14.465c-9.235,0.329-17.568,2.685-24.244,9.059c-9.314,8.903-16.708,18.832-15.088,32.937
		c1.169,10.151-0.723,19.831-4.095,29.545c-2.611,7.513-3.329,15.682-4.922,23.55c-3.354,16.571-5.804,33.237-5.619,50.213
		c0.044,4.146,0.764,7.729,4.995,9.642c2.896,1.31,4.595,3.513,3.479,6.721c-1.06,3.043-3.904,2.733-6.47,2.59
		c-0.666-0.033-1.319-0.146-1.956-0.219c-3.158,6.431-4.004,6.896-11.418,6.34c-6.546-0.49-9.261-2.445-10.932-8.579
		c-1.505-5.532-2.342-11.231-6.291-15.849c-0.886-1.038-1.257-3.245-0.819-4.568c4.113-12.391,1.129-24.737-0.05-37.071
		c-0.547-5.725-1.663-11.394-2.525-17.087c-0.853-5.66-3.85-9.866-8.952-12.74c7.98,5.846,7.95,14.743,9.437,23.437
		c-8.876,0.999-17.402,0.021-25.61-2.278c-9.255-2.597-18.483-5.596-27.257-9.473c-10.065-4.447-20.218-6.798-31.737-5.485
		c1.264,0.234,1.976,0.366,3.164,0.59c-7.063,16.583-12.919,33.672-30.846,42.337c-4.259,2.059-8.051,5.236-11.733,8.291
		c-3.2,2.658-4.323,6.321-3.205,10.533c0.752,2.843,0.871,5.959,2.132,8.531c1.221,2.492,3.464,4.527,5.426,6.601
		c0.892,0.939,2.655,1.249,3.201,2.278c0.745,1.402,1.183,3.337,0.828,4.822c-0.211,0.883-2.146,1.813-3.379,1.929
		c-9.216,0.86-13.61-1.91-16.74-10.809c-2.662-7.567-4.97-15.26-7.481-22.886C41.304,213.414,40.622,212.007,39.603,209.534z
		 M210.162,175.826c-0.36-0.063-0.718-0.122-1.076-0.185c-1.075,6.655-2.454,13.281-3.154,19.977
		c-0.926,8.887-1.422,17.825-1.911,26.756c-0.22,4.04,0.022,8.104,0.056,12.156C207.103,214.965,205.508,195.133,210.162,175.826z
		 M247.227,63.956c0.796,3.964,2.056,7.559,2.138,11.181c0.208,9.479-5.182,13.462-13.976,10.099
		c-4.8-1.834-9.101-4.96-13.088-7.199c1.31,4.651,14.929,10.605,20.376,9.48c3.621-0.75,6.016-2.874,7.09-6.331
		C251.659,75.085,250.763,69.347,247.227,63.956z M58.271,195.553c10.708-11.288,20.304-23.818,34.95-30.549
		C77.748,170.738,67.927,183.066,58.271,195.553z"/>
	<g>
	</g>
	<g>
	</g>
	<g>
	</g>
	<g>
	</g>
	<g>
	</g>
	<g>
	</g>
</g>
</svg>
