<?xml version="1.0" encoding="utf-8"?>
<!-- Generator: Adobe Illustrator 16.0.0, SVG Export Plug-In . SVG Version: 6.00 Build 0)  -->
<!DOCTYPE svg PUBLIC "-//W3C//DTD SVG 1.1//EN" "http://www.w3.org/Graphics/SVG/1.1/DTD/svg11.dtd">
<svg version="1.1" id="Layer_1" xmlns="http://www.w3.org/2000/svg" xmlns:xlink="http://www.w3.org/1999/xlink" x="0px" y="0px"
	 width="800px" height="1200px" viewBox="0 0 800 1200" enable-background="new 0 0 800 1200" xml:space="preserve">
<rect fill="#D1D3D4" width="800" height="1200"/>
<g enable-background="new    ">
	<path fill="#FFFFFF" d="M187.682,182.447c-0.5-9.4-1.1-20.701-1-29.102h-0.3c-2.3,7.9-5.101,16.301-8.5,25.602l-11.901,32.701
		h-6.601l-10.9-32.102c-3.2-9.501-5.9-18.201-7.801-26.201h-0.2c-0.2,8.4-0.7,19.701-1.3,29.802l-1.8,28.901h-8.301l4.7-67.404
		h11.101l11.5,32.603c2.8,8.3,5.1,15.7,6.8,22.701h0.3c1.7-6.801,4.1-14.201,7.1-22.701l12.001-32.603h11.101l4.2,67.404h-8.5
		L187.682,182.447z"/>
	<path fill="#FFFFFF" d="M268.881,177.646c0,23.201-14.101,35.502-31.302,35.502c-17.801,0-30.302-13.801-30.302-34.201
		c0-21.401,13.301-35.402,31.302-35.402C256.98,143.545,268.881,157.646,268.881,177.646z M216.578,178.747
		c0,14.4,7.8,27.302,21.501,27.302c13.801,0,21.601-12.701,21.601-28.002c0-13.401-7-27.401-21.501-27.401
		C223.778,150.646,216.578,163.946,216.578,178.747z"/>
	<path fill="#FFFFFF" d="M280.177,145.545c3.8-0.8,9.801-1.4,15.9-1.4c8.701,0,14.302,1.5,18.502,4.9c3.5,2.601,5.6,6.601,5.6,11.9
		c0,6.501-4.3,12.201-11.4,14.802v0.199c6.4,1.601,13.901,6.9,13.901,16.901c0,5.801-2.301,10.2-5.701,13.501
		c-4.7,4.3-12.301,6.3-23.301,6.3c-6.001,0-10.601-0.399-13.501-0.8V145.545z M288.877,173.146h7.9
		c9.201,0,14.602-4.801,14.602-11.301c0-7.9-6.001-11.001-14.802-11.001c-4,0-6.3,0.301-7.7,0.601V173.146z M288.877,205.448
		c1.7,0.3,4.2,0.4,7.301,0.4c9,0,17.301-3.301,17.301-13.101c0-9.201-7.9-13.001-17.401-13.001h-7.2V205.448z"/>
	<path fill="#FFFFFF" d="M343.076,144.645v67.404h-8.7v-67.404H343.076z"/>
	<path fill="#FFFFFF" d="M358.276,144.645h8.7v60.104h28.802v7.301h-37.502V144.645z"/>
	<path fill="#FFFFFF" d="M440.377,180.447h-26.202v24.301h29.202v7.301h-37.902v-67.404h36.402v7.301h-27.702v21.301h26.202V180.447
		z"/>
	<path fill="#FFFFFF" d="M484.572,144.645v28.202h32.603v-28.202h8.8v67.404h-8.8v-31.602h-32.603v31.602h-8.7v-67.404H484.572z"/>
	<path fill="#FFFFFF" d="M575.975,180.447h-26.202v24.301h29.202v7.301h-37.902v-67.404h36.402v7.301h-27.702v21.301h26.202V180.447
		z"/>
</g>
<g enable-background="new    ">
	<path fill="#FFFFFF" d="M590.271,145.545c4.4-0.9,10.7-1.4,16.7-1.4c9.301,0,15.302,1.7,19.501,5.5
		c3.4,3.001,5.301,7.601,5.301,12.801c0,8.901-5.601,14.802-12.701,17.201v0.301c5.201,1.8,8.301,6.6,9.9,13.601
		c2.201,9.4,3.801,15.9,5.201,18.501h-9.001c-1.101-1.9-2.601-7.7-4.5-16.101c-2.001-9.301-5.601-12.801-13.501-13.102h-8.201
		v29.202h-8.699V145.545z M598.971,176.247h8.901c9.3,0,15.2-5.101,15.2-12.801c0-8.701-6.3-12.501-15.5-12.602
		c-4.201,0-7.201,0.4-8.602,0.801V176.247z"/>
</g>
<g enable-background="new    ">
	<path fill="#FFFFFF" d="M701.973,177.646c0,23.201-14.102,35.502-31.303,35.502c-17.801,0-30.302-13.801-30.302-34.201
		c0-21.401,13.301-35.402,31.302-35.402C690.071,143.545,701.973,157.646,701.973,177.646z M649.669,178.747
		c0,14.4,7.8,27.302,21.501,27.302c13.801,0,21.602-12.701,21.602-28.002c0-13.401-7-27.401-21.502-27.401
		C656.869,150.646,649.669,163.946,649.669,178.747z"/>
</g>
<g enable-background="new    ">
	<path fill="#FFFFFF" d="M139.579,264.645v67.404h-8.7v-67.404H139.579z"/>
</g>
<g enable-background="new    ">
	<path fill="#FFFFFF" d="M211.582,302.447c-0.5-9.4-1.1-20.701-1-29.102h-0.3c-2.3,7.9-5.101,16.301-8.5,25.602l-11.901,32.701
		h-6.601l-10.9-32.102c-3.2-9.501-5.9-18.201-7.801-26.201h-0.2c-0.2,8.4-0.7,19.701-1.3,29.802l-1.8,28.901h-8.301l4.7-67.404
		h11.101l11.5,32.603c2.8,8.3,5.1,15.7,6.8,22.701h0.3c1.7-6.801,4.1-14.201,7.1-22.701l12.001-32.603h11.101l4.2,67.404h-8.5
		L211.582,302.447z"/>
</g>
<g enable-background="new    ">
	<path fill="#FFFFFF" d="M245.078,310.848l-7,21.201h-9l22.901-67.404h10.501l23.001,67.404h-9.301l-7.201-21.201H245.078z
		 M267.18,304.047l-6.601-19.401c-1.5-4.399-2.5-8.4-3.5-12.301h-0.2c-1,4.001-2.1,8.101-3.4,12.201l-6.601,19.501H267.18z"/>
</g>
<g enable-background="new    ">
	<path fill="#FFFFFF" d="M345.181,329.049c-3.9,1.4-11.601,3.7-20.702,3.7c-10.2,0-18.601-2.601-25.201-8.9
		c-5.801-5.601-9.401-14.602-9.401-25.102c0.1-20.102,13.901-34.803,36.502-34.803c7.8,0,13.901,1.7,16.801,3.101l-2.1,7.101
		c-3.6-1.601-8.101-2.9-14.901-2.9c-16.401,0-27.102,10.2-27.102,27.102c0,17.102,10.301,27.202,26.001,27.202
		c5.701,0,9.601-0.801,11.601-1.801v-20.101h-13.701v-7.001h22.202V329.049z"/>
	<path fill="#FFFFFF" d="M393.379,300.447h-26.202v24.301h29.202v7.301h-37.902v-67.404h36.402v7.301h-27.702v21.301h26.202V300.447
		z"/>
</g>
<g enable-background="new    ">
	<path fill="#FFFFFF" d="M126.979,435.548c0-8.2,4.9-14.001,12.901-17.401l-0.1-0.3c-7.2-3.4-10.301-9.001-10.301-14.601
		c0-10.301,8.701-17.302,20.102-17.302c12.601,0,18.901,7.901,18.901,16.001c0,5.501-2.7,11.401-10.701,15.201v0.3
		c8.101,3.2,13.101,8.901,13.101,16.802c0,11.301-9.701,18.9-22.102,18.9C135.179,453.148,126.979,445.049,126.979,435.548z
		 M161.98,435.147c0-7.9-5.5-11.7-14.301-14.2c-7.601,2.2-11.701,7.2-11.701,13.4c-0.3,6.601,4.7,12.4,13.001,12.4
		C156.88,446.748,161.98,441.849,161.98,435.147z M137.779,402.646c0,6.501,4.9,10.001,12.401,12.001c5.6-1.9,9.9-5.9,9.9-11.801
		c0-5.2-3.1-10.601-11-10.601C141.779,392.245,137.779,397.046,137.779,402.646z"/>
	<path fill="#FFFFFF" d="M222.28,418.847c0,22.102-8.201,34.302-22.602,34.302c-12.701,0-21.301-11.9-21.501-33.401
		c0-21.802,9.401-33.803,22.602-33.803C214.479,385.944,222.28,398.146,222.28,418.847z M186.978,419.847
		c0,16.901,5.2,26.502,13.201,26.502c9,0,13.301-10.501,13.301-27.102c0-16.001-4.1-26.502-13.201-26.502
		C192.578,392.745,186.978,402.146,186.978,419.847z"/>
	<path fill="#FFFFFF" d="M273.578,418.847c0,22.102-8.2,34.302-22.601,34.302c-12.701,0-21.301-11.9-21.501-33.401
		c0-21.802,9.401-33.803,22.602-33.803C265.778,385.944,273.578,398.146,273.578,418.847z M238.276,419.847
		c0,16.901,5.2,26.502,13.201,26.502c9,0,13.301-10.501,13.301-27.102c0-16.001-4.1-26.502-13.201-26.502
		C243.876,392.745,238.276,402.146,238.276,419.847z"/>
	<path fill="#FFFFFF" d="M309.773,403.646l6.9,10.401c1.801,2.7,3.301,5.2,4.9,7.9h0.3c1.601-2.9,3.2-5.4,4.801-8.001l6.801-10.301
		h9.5l-16.501,23.401l17.001,25.002h-10l-7.101-10.9c-1.9-2.801-3.5-5.501-5.2-8.4h-0.2c-1.601,2.899-3.301,5.5-5.101,8.4l-7,10.9
		h-9.701l17.201-24.701l-16.4-23.702H309.773z"/>
	<path fill="#FFFFFF" d="M389.474,395.245h-0.2l-11.301,6.101l-1.7-6.7l14.201-7.601h7.5v65.004h-8.5V395.245z"/>
	<path fill="#FFFFFF" d="M421.67,452.049v-5.4l6.9-6.7c16.602-15.801,24.102-24.201,24.202-34.002c0-6.601-3.2-12.701-12.901-12.701
		c-5.9,0-10.801,3-13.801,5.5l-2.8-6.2c4.5-3.8,10.9-6.601,18.401-6.601c14,0,19.9,9.601,19.9,18.901
		c0,12.001-8.7,21.701-22.401,34.902l-5.2,4.801v0.199h29.202v7.301H421.67z"/>
	<path fill="#FFFFFF" d="M516.172,418.847c0,22.102-8.201,34.302-22.602,34.302c-12.701,0-21.302-11.9-21.501-33.401
		c0-21.802,9.4-33.803,22.601-33.803C508.371,385.944,516.172,398.146,516.172,418.847z M480.869,419.847
		c0,16.901,5.2,26.502,13.201,26.502c9.001,0,13.301-10.501,13.301-27.102c0-16.001-4.101-26.502-13.201-26.502
		C486.47,392.745,480.869,402.146,480.869,419.847z"/>
	<path fill="#FFFFFF" d="M567.471,418.847c0,22.102-8.201,34.302-22.602,34.302c-12.701,0-21.302-11.9-21.501-33.401
		c0-21.802,9.4-33.803,22.601-33.803C559.67,385.944,567.471,398.146,567.471,418.847z M532.168,419.847
		c0,16.901,5.2,26.502,13.201,26.502c9.001,0,13.301-10.501,13.301-27.102c0-16.001-4.101-26.502-13.201-26.502
		C537.769,392.745,532.168,402.146,532.168,419.847z"/>
</g>
<g enable-background="new    ">
	<path fill="#FFFFFF" d="M599.564,419.447c0-6.201-0.199-11.201-0.4-15.802h7.9l0.4,8.301h0.2c3.601-5.9,9.301-9.4,17.201-9.4
		c11.7,0,20.501,9.9,20.501,24.602c0,17.401-10.601,26.001-22.001,26.001c-6.4,0-12.001-2.8-14.901-7.6h-0.199v26.301h-8.701
		V419.447z M608.266,432.348c0,1.3,0.199,2.5,0.399,3.601c1.601,6.1,6.9,10.3,13.2,10.3c9.301,0,14.701-7.6,14.701-18.701
		c0-9.7-5.1-18.001-14.4-18.001c-6,0-11.601,4.301-13.301,10.901c-0.301,1.1-0.6,2.399-0.6,3.6V432.348z"/>
</g>
<g enable-background="new    ">
	<path fill="#FFFFFF" d="M659.164,403.646l6.9,10.401c1.8,2.7,3.301,5.2,4.9,7.9h0.3c1.601-2.9,3.2-5.4,4.8-8.001l6.801-10.301h9.5
		l-16.5,23.401l17,25.002h-10l-7.1-10.9c-1.9-2.801-3.501-5.501-5.201-8.4h-0.199c-1.601,2.899-3.301,5.5-5.102,8.4l-7,10.9h-9.701
		l17.201-24.701l-16.4-23.702H659.164z"/>
</g>
</svg>
