<?xml version="1.0" encoding="utf-8"?>
<!-- Generator: Adobe Illustrator 16.0.0, SVG Export Plug-In . SVG Version: 6.00 Build 0)  -->
<!DOCTYPE svg PUBLIC "-//W3C//DTD SVG 1.1//EN" "http://www.w3.org/Graphics/SVG/1.1/DTD/svg11.dtd">
<svg version="1.1" id="Layer_1" xmlns="http://www.w3.org/2000/svg" xmlns:xlink="http://www.w3.org/1999/xlink" x="0px" y="0px"
	 width="400px" height="800px" viewBox="0 0 400 800" enable-background="new 0 0 400 800" xml:space="preserve">
<rect fill="#D1D3D4" width="400" height="800"/>
<g>
	<path fill="#FFFFFF" d="M63.921,184.831c-0.3-5.64-0.66-12.419-0.6-17.459h-0.18c-1.38,4.74-3.06,9.78-5.1,15.359l-7.14,19.619
		h-3.96l-6.54-19.259c-1.92-5.7-3.54-10.92-4.68-15.72h-0.12c-0.12,5.04-0.42,11.82-0.78,17.879l-1.08,17.339h-4.979l2.82-40.438
		h6.66l6.9,19.56c1.68,4.979,3.06,9.419,4.08,13.619h0.18c1.02-4.08,2.46-8.52,4.26-13.619l7.2-19.56h6.66l2.52,40.438h-5.1
		L63.921,184.831z"/>
	<path fill="#FFFFFF" d="M112.641,181.951c0,13.919-8.46,21.299-18.779,21.299c-10.68,0-18.18-8.28-18.18-20.52
		c0-12.839,7.98-21.239,18.779-21.239C105.501,161.492,112.641,169.951,112.641,181.951z M81.262,182.611
		c0,8.64,4.68,16.379,12.899,16.379c8.28,0,12.959-7.62,12.959-16.8c0-8.04-4.2-16.439-12.899-16.439
		C85.582,165.751,81.262,173.731,81.262,182.611z"/>
	<path fill="#FFFFFF" d="M119.421,162.691c2.28-0.48,5.88-0.84,9.54-0.84c5.22,0,8.58,0.9,11.1,2.94
		c2.1,1.56,3.359,3.959,3.359,7.14c0,3.9-2.58,7.32-6.839,8.879v0.12c3.84,0.96,8.339,4.14,8.339,10.14c0,3.48-1.38,6.12-3.42,8.1
		c-2.82,2.58-7.379,3.78-13.979,3.78c-3.6,0-6.36-0.24-8.1-0.48V162.691z M124.642,179.251h4.74c5.52,0,8.76-2.88,8.76-6.78
		c0-4.74-3.6-6.6-8.88-6.6c-2.4,0-3.78,0.18-4.62,0.36V179.251z M124.642,198.63c1.02,0.18,2.52,0.24,4.379,0.24
		c5.4,0,10.38-1.98,10.38-7.86c0-5.52-4.74-7.8-10.439-7.8h-4.32V198.63z"/>
	<path fill="#FFFFFF" d="M157.161,162.151v40.438h-5.22v-40.438H157.161z"/>
	<path fill="#FFFFFF" d="M166.282,162.151h5.22v36.059h17.279v4.38h-22.499V162.151z"/>
	<path fill="#FFFFFF" d="M215.539,183.631H199.82v14.579h17.52v4.38H194.6v-40.438h21.839v4.38H199.82v12.779h15.719V183.631z"/>
	<path fill="#FFFFFF" d="M242.059,162.151v16.919h19.56v-16.919h5.28v40.438h-5.28v-18.959h-19.56v18.959h-5.219v-40.438H242.059z"
		/>
	<path fill="#FFFFFF" d="M296.898,183.631h-15.72v14.579h17.519v4.38h-22.738v-40.438h21.839v4.38h-16.619v12.779h15.72V183.631z"/>
	<path fill="#FFFFFF" d="M305.479,162.691c2.64-0.54,6.42-0.84,10.02-0.84c5.58,0,9.18,1.02,11.699,3.3
		c2.04,1.8,3.18,4.56,3.18,7.68c0,5.34-3.359,8.88-7.619,10.319v0.18c3.119,1.08,4.979,3.96,5.939,8.16
		c1.32,5.64,2.279,9.54,3.12,11.1h-5.399c-0.66-1.14-1.561-4.62-2.701-9.66c-1.199-5.58-3.359-7.68-8.1-7.86h-4.919v17.52h-5.22
		V162.691z M310.698,181.111h5.339c5.58,0,9.121-3.06,9.121-7.68c0-5.22-3.781-7.5-9.301-7.56c-2.52,0-4.319,0.24-5.159,0.48
		V181.111z"/>
	<path fill="#FFFFFF" d="M372.496,181.951c0,13.919-8.46,21.299-18.779,21.299c-10.68,0-18.18-8.28-18.18-20.52
		c0-12.839,7.98-21.239,18.779-21.239C365.355,161.492,372.496,169.951,372.496,181.951z M341.117,182.611
		c0,8.64,4.68,16.379,12.899,16.379c8.28,0,12.96-7.62,12.96-16.8c0-8.04-4.2-16.439-12.9-16.439
		C345.438,165.751,341.117,173.731,341.117,182.611z"/>
	<path fill="#FFFFFF" d="M120.381,234.151v40.438h-5.22v-40.438H120.381z"/>
	<path fill="#FFFFFF" d="M163.58,256.831c-0.3-5.64-0.66-12.419-0.6-17.459h-0.18c-1.38,4.74-3.06,9.78-5.1,15.359l-7.14,19.619
		h-3.96l-6.54-19.259c-1.92-5.7-3.54-10.92-4.68-15.72h-0.12c-0.12,5.04-0.42,11.82-0.78,17.879l-1.08,17.339h-4.979l2.82-40.438
		h6.66l6.9,19.56c1.68,4.979,3.06,9.419,4.08,13.619h0.18c1.02-4.08,2.46-8.52,4.26-13.619l7.2-19.56h6.66l2.52,40.438h-5.1
		L163.58,256.831z"/>
	<path fill="#FFFFFF" d="M183.68,261.87l-4.2,12.72h-5.4l13.739-40.438h6.3l13.799,40.438h-5.579l-4.32-12.72H183.68z
		 M196.939,257.791l-3.959-11.64c-0.9-2.64-1.5-5.04-2.1-7.379h-0.12c-0.6,2.4-1.26,4.859-2.04,7.319l-3.959,11.7H196.939z"/>
	<path fill="#FFFFFF" d="M243.738,272.79c-2.34,0.84-6.959,2.22-12.419,2.22c-6.12,0-11.159-1.56-15.119-5.34
		c-3.479-3.36-5.64-8.76-5.64-15.059c0.06-12.06,8.34-20.879,21.898-20.879c4.68,0,8.34,1.02,10.08,1.86l-1.26,4.26
		c-2.16-0.96-4.859-1.74-8.939-1.74c-9.84,0-16.26,6.12-16.26,16.259c0,10.26,6.18,16.319,15.6,16.319c3.42,0,5.76-0.48,6.959-1.08
		v-12.059h-8.219v-4.2h13.318V272.79z"/>
	<path fill="#FFFFFF" d="M272.659,255.631h-15.72v14.579h17.52v4.38h-22.738v-40.438h21.838v4.38h-16.619v12.779h15.72V255.631z"/>
	<path fill="#FFFFFF" d="M63.173,346.59v-10.619H45.054v-3.48l17.399-24.898h5.7v24.238h5.46v4.141h-5.46v10.619H63.173z
		 M63.173,331.83v-13.02c0-2.039,0.06-4.079,0.18-6.119h-0.18c-1.2,2.279-2.16,3.96-3.24,5.76l-9.54,13.26v0.119H63.173z"/>
	<path fill="#FFFFFF" d="M103.552,326.671c0,13.259-4.919,20.579-13.559,20.579c-7.62,0-12.78-7.14-12.899-20.039
		c0-13.08,5.64-20.279,13.559-20.279C98.872,306.932,103.552,314.251,103.552,326.671z M82.373,327.271
		c0,10.14,3.12,15.899,7.92,15.899c5.4,0,7.979-6.3,7.979-16.26c0-9.6-2.46-15.898-7.919-15.898
		C85.733,311.012,82.373,316.651,82.373,327.271z"/>
	<path fill="#FFFFFF" d="M134.331,326.671c0,13.259-4.919,20.579-13.559,20.579c-7.62,0-12.78-7.14-12.9-20.039
		c0-13.08,5.64-20.279,13.56-20.279C129.651,306.932,134.331,314.251,134.331,326.671z M113.152,327.271
		c0,10.14,3.12,15.899,7.919,15.899c5.4,0,7.979-6.3,7.979-16.26c0-9.6-2.459-15.898-7.919-15.898
		C116.511,311.012,113.152,316.651,113.152,327.271z"/>
	<path fill="#FFFFFF" d="M156.05,317.551l4.14,6.24c1.08,1.62,1.98,3.119,2.94,4.739h0.18c0.96-1.739,1.92-3.239,2.88-4.8l4.08-6.18
		h5.7l-9.899,14.04l10.2,14.999h-6l-4.26-6.54c-1.14-1.68-2.1-3.3-3.12-5.039h-0.12c-0.96,1.739-1.98,3.3-3.06,5.039l-4.2,6.54
		h-5.82l10.32-14.819l-9.84-14.22H156.05z"/>
	<path fill="#FFFFFF" d="M191.93,336.69c0-4.92,2.94-8.399,7.74-10.439l-0.06-0.181c-4.32-2.039-6.18-5.399-6.18-8.76
		c0-6.18,5.22-10.379,12.06-10.379c7.56,0,11.339,4.739,11.339,9.6c0,3.3-1.619,6.84-6.419,9.119v0.181
		c4.86,1.92,7.86,5.34,7.86,10.079c0,6.78-5.82,11.34-13.26,11.34C196.85,347.25,191.93,342.39,191.93,336.69z M212.93,336.45
		c0-4.739-3.301-7.02-8.58-8.52c-4.56,1.32-7.02,4.319-7.02,8.04c-0.18,3.959,2.82,7.439,7.799,7.439
		C209.869,343.41,212.93,340.47,212.93,336.45z M198.41,316.951c0,3.899,2.94,6,7.44,7.199c3.359-1.14,5.939-3.539,5.939-7.079
		c0-3.12-1.859-6.36-6.6-6.36C200.81,310.711,198.41,313.591,198.41,316.951z"/>
	<path fill="#FFFFFF" d="M249.107,326.671c0,13.259-4.92,20.579-13.559,20.579c-7.621,0-12.78-7.14-12.9-20.039
		c0-13.08,5.641-20.279,13.56-20.279C244.428,306.932,249.107,314.251,249.107,326.671z M227.928,327.271
		c0,10.14,3.121,15.899,7.92,15.899c5.4,0,7.98-6.3,7.98-16.26c0-9.6-2.461-15.898-7.92-15.898
		C231.289,311.012,227.928,316.651,227.928,327.271z"/>
	<path fill="#FFFFFF" d="M279.887,326.671c0,13.259-4.92,20.579-13.559,20.579c-7.621,0-12.78-7.14-12.9-20.039
		c0-13.08,5.641-20.279,13.56-20.279C275.207,306.932,279.887,314.251,279.887,326.671z M258.707,327.271
		c0,10.14,3.121,15.899,7.92,15.899c5.4,0,7.98-6.3,7.98-16.26c0-9.6-2.461-15.898-7.92-15.898
		C262.068,311.012,258.707,316.651,258.707,327.271z"/>
	<path fill="#FFFFFF" d="M299.146,327.03c0-3.72-0.12-6.72-0.24-9.479h4.74l0.24,4.98h0.119c2.16-3.54,5.58-5.641,10.32-5.641
		c7.02,0,12.299,5.94,12.299,14.76c0,10.439-6.359,15.6-13.199,15.6c-3.84,0-7.199-1.68-8.939-4.56h-0.12v15.779h-5.22V327.03z
		 M304.366,334.771c0,0.78,0.12,1.5,0.239,2.16c0.961,3.659,4.141,6.18,7.92,6.18c5.58,0,8.82-4.561,8.82-11.22
		c0-5.82-3.061-10.8-8.64-10.8c-3.601,0-6.96,2.58-7.979,6.54c-0.18,0.66-0.36,1.439-0.36,2.16V334.771z"/>
	<path fill="#FFFFFF" d="M334.906,317.551l4.139,6.24c1.08,1.62,1.98,3.119,2.94,4.739h0.181c0.959-1.739,1.92-3.239,2.879-4.8
		l4.08-6.18h5.699l-9.898,14.04l10.199,14.999h-6l-4.26-6.54c-1.141-1.68-2.1-3.3-3.119-5.039h-0.121
		c-0.959,1.739-1.979,3.3-3.06,5.039l-4.2,6.54h-5.819l10.319-14.819l-9.84-14.22H334.906z"/>
</g>
<g>
</g>
<g>
</g>
<g>
</g>
<g>
</g>
<g>
</g>
<g>
</g>
</svg>
