<?xml version="1.0" encoding="utf-8"?>
<!-- Generator: Adobe Illustrator 16.0.0, SVG Export Plug-In . SVG Version: 6.00 Build 0)  -->
<!DOCTYPE svg PUBLIC "-//W3C//DTD SVG 1.1//EN" "http://www.w3.org/Graphics/SVG/1.1/DTD/svg11.dtd">
<svg version="1.1" id="Layer_1" xmlns="http://www.w3.org/2000/svg" xmlns:xlink="http://www.w3.org/1999/xlink" x="0px" y="0px"
	 width="1600px" height="500px" viewBox="0 0 1600 500" enable-background="new 0 0 1600 500" xml:space="preserve">
<rect fill="#D1D3D4" width="1600" height="500"/>
<g enable-background="new    ">
	<path fill="#FFFFFF" d="M149.027,188.145v33.839h39.119v-33.839h10.56v80.877h-10.56v-37.918h-39.119v37.918h-10.439v-80.877
		H149.027z"/>
	<path fill="#FFFFFF" d="M258.705,231.104h-31.439v29.158h35.039v8.76h-45.478v-80.877h43.678v8.76h-33.239v25.559h31.439V231.104z"
		/>
</g>
<g enable-background="new    ">
	<path fill="#FFFFFF" d="M275.865,189.225c5.28-1.08,12.839-1.68,20.039-1.68c11.16,0,18.359,2.04,23.399,6.6
		c4.08,3.6,6.36,9.119,6.36,15.359c0,10.68-6.72,17.76-15.239,20.639v0.36c6.24,2.16,9.959,7.92,11.879,16.319
		c2.64,11.279,4.56,19.079,6.24,22.199h-10.799c-1.32-2.28-3.12-9.239-5.4-19.319c-2.4-11.159-6.72-15.359-16.199-15.72h-9.84
		v35.039h-10.439V189.225z M286.305,226.063h10.68c11.16,0,18.239-6.12,18.239-15.359c0-10.439-7.56-15-18.599-15.12
		c-5.04,0-8.64,0.48-10.32,0.961V226.063z"/>
</g>
<g enable-background="new    ">
	<path fill="#FFFFFF" d="M409.9,227.743c0,27.839-16.919,42.599-37.559,42.599c-21.359,0-36.358-16.56-36.358-41.039
		c0-25.679,15.959-42.478,37.559-42.478C395.621,186.825,409.9,203.744,409.9,227.743z M347.143,229.063
		c0,17.279,9.359,32.759,25.799,32.759c16.56,0,25.919-15.24,25.919-33.6c0-16.079-8.399-32.878-25.799-32.878
		C355.783,195.345,347.143,211.304,347.143,229.063z"/>
	<path fill="#FFFFFF" d="M459.341,188.145v80.877h-10.439v-80.877H459.341z"/>
</g>
<g enable-background="new    ">
	<path fill="#FFFFFF" d="M545.739,233.503c-0.6-11.279-1.32-24.839-1.2-34.919h-0.36c-2.76,9.48-6.12,19.56-10.199,30.719
		l-14.28,39.238h-7.919l-13.08-38.518c-3.84-11.4-7.08-21.84-9.36-31.439h-0.24c-0.24,10.08-0.84,23.64-1.56,35.759l-2.16,34.679
		h-9.959l5.64-80.877h13.319l13.799,39.119c3.36,9.959,6.12,18.839,8.16,27.238h0.36c2.04-8.159,4.919-17.039,8.52-27.238
		l14.399-39.119h13.319l5.04,80.877h-10.2L545.739,233.503z"/>
</g>
<g enable-background="new    ">
	<path fill="#FFFFFF" d="M585.94,243.582l-8.4,25.439h-10.799l27.479-80.877h12.6l27.599,80.877h-11.16l-8.64-25.439H585.94z
		 M612.458,235.423l-7.919-23.279c-1.8-5.279-3-10.079-4.2-14.759h-0.24c-1.2,4.8-2.52,9.719-4.08,14.639l-7.92,23.399H612.458z"/>
</g>
<g enable-background="new    ">
	<path fill="#FFFFFF" d="M706.058,265.422c-4.68,1.68-13.919,4.439-24.839,4.439c-12.239,0-22.319-3.12-30.238-10.68
		c-6.96-6.72-11.28-17.52-11.28-30.118c0.12-24.119,16.679-41.759,43.798-41.759c9.359,0,16.679,2.04,20.159,3.72l-2.52,8.52
		c-4.32-1.92-9.72-3.479-17.879-3.479c-19.679,0-32.519,12.239-32.519,32.519c0,20.52,12.359,32.639,31.199,32.639
		c6.84,0,11.52-0.96,13.919-2.16v-24.118h-16.439v-8.4h26.639V265.422z"/>
	<path fill="#FFFFFF" d="M763.898,231.104h-31.439v29.158h35.039v8.76H722.02v-80.877h43.678v8.76h-33.239v25.559h31.439V231.104z"
		/>
	<path fill="#FFFFFF" d="M825.697,200.864h-0.24l-13.56,7.319l-2.04-8.039l17.039-9.12h9v77.997h-10.199V200.864z"/>
	<path fill="#FFFFFF" d="M908.854,198.465c-2.16-0.12-4.92,0-7.92,0.479c-16.56,2.76-25.318,14.88-27.118,27.719h0.359
		c3.72-4.92,10.199-8.999,18.84-8.999c13.799,0,23.519,9.959,23.519,25.198c0,14.279-9.72,27.479-25.919,27.479
		c-16.68,0-27.599-12.96-27.599-33.239c0-15.359,5.52-27.479,13.199-35.158c6.479-6.36,15.119-10.319,24.959-11.52
		c3.12-0.48,5.76-0.601,7.68-0.601V198.465z M905.854,243.463c0-11.16-6.359-17.88-16.079-17.88c-6.359,0-12.239,3.96-15.119,9.6
		c-0.721,1.2-1.2,2.76-1.2,4.68c0.24,12.84,6.12,22.319,17.159,22.319C899.734,262.182,905.854,254.622,905.854,243.463z"/>
	<path fill="#FFFFFF" d="M977.731,229.184c0,26.519-9.839,41.158-27.118,41.158c-15.24,0-25.56-14.279-25.799-40.079
		c0-26.158,11.279-40.558,27.118-40.558C968.372,189.705,977.731,204.344,977.731,229.184z M935.373,230.383
		c0,20.279,6.24,31.799,15.84,31.799c10.8,0,15.959-12.6,15.959-32.519c0-19.199-4.92-31.799-15.839-31.799
		C942.094,197.864,935.373,209.144,935.373,230.383z"/>
	<path fill="#FFFFFF" d="M1039.29,229.184c0,26.519-9.839,41.158-27.118,41.158c-15.24,0-25.56-14.279-25.799-40.079
		c0-26.158,11.279-40.558,27.118-40.558C1029.931,189.705,1039.29,204.344,1039.29,229.184z M996.932,230.383
		c0,20.279,6.24,31.799,15.84,31.799c10.8,0,15.959-12.6,15.959-32.519c0-19.199-4.92-31.799-15.839-31.799
		C1003.652,197.864,996.932,209.144,996.932,230.383z"/>
	<path fill="#FFFFFF" d="M1082.729,210.943l8.279,12.48c2.16,3.239,3.96,6.239,5.88,9.479h0.36c1.92-3.48,3.84-6.48,5.76-9.6
		l8.159-12.36h11.399l-19.799,28.079l20.399,29.999h-12l-8.52-13.079c-2.28-3.36-4.2-6.601-6.24-10.08h-0.239
		c-1.92,3.479-3.96,6.6-6.12,10.08l-8.399,13.079h-11.64l20.639-29.639l-19.679-28.439H1082.729z"/>
	<path fill="#FFFFFF" d="M1202.006,199.904h-29.759l-3,20.039c1.8-0.24,3.479-0.479,6.359-0.479c6,0,12,1.319,16.8,4.199
		c6.119,3.48,11.159,10.2,11.159,20.039c0,15.239-12.119,26.64-29.038,26.64c-8.521,0-15.72-2.4-19.439-4.8l2.64-8.04
		c3.24,1.92,9.6,4.32,16.68,4.32c9.959,0,18.479-6.48,18.479-16.92c-0.12-10.079-6.839-17.279-22.438-17.279
		c-4.44,0-7.92,0.48-10.8,0.84l5.04-37.438h37.318V199.904z"/>
	<path fill="#FFFFFF" d="M1268.844,229.184c0,26.519-9.839,41.158-27.118,41.158c-15.239,0-25.56-14.279-25.8-40.079
		c0-26.158,11.28-40.558,27.119-40.558C1259.484,189.705,1268.844,204.344,1268.844,229.184z M1226.486,230.383
		c0,20.279,6.239,31.799,15.839,31.799c10.8,0,15.959-12.6,15.959-32.519c0-19.199-4.919-31.799-15.839-31.799
		C1233.205,197.864,1226.486,209.144,1226.486,230.383z"/>
	<path fill="#FFFFFF" d="M1330.402,229.184c0,26.519-9.839,41.158-27.118,41.158c-15.239,0-25.56-14.279-25.8-40.079
		c0-26.158,11.28-40.558,27.119-40.558C1321.043,189.705,1330.402,204.344,1330.402,229.184z M1288.045,230.383
		c0,20.279,6.239,31.799,15.839,31.799c10.8,0,15.959-12.6,15.959-32.519c0-19.199-4.919-31.799-15.839-31.799
		C1294.764,197.864,1288.045,209.144,1288.045,230.383z"/>
</g>
<g enable-background="new    ">
	<path fill="#FFFFFF" d="M1368.922,229.903c0-7.44-0.24-13.439-0.48-18.96h9.479l0.479,9.96h0.24
		c4.32-7.079,11.16-11.279,20.639-11.279c14.04,0,24.6,11.88,24.6,29.519c0,20.879-12.719,31.199-26.398,31.199
		c-7.68,0-14.4-3.36-17.879-9.12h-0.24v31.559h-10.439V229.903z M1379.361,245.383c0,1.56,0.24,3,0.479,4.319
		c1.92,7.319,8.28,12.359,15.839,12.359c11.16,0,17.64-9.119,17.64-22.438c0-11.64-6.12-21.6-17.279-21.6
		c-7.2,0-13.919,5.16-15.96,13.08c-0.359,1.319-0.719,2.879-0.719,4.319V245.383z"/>
</g>
<g enable-background="new    ">
	<path fill="#FFFFFF" d="M1440.441,210.943l8.279,12.48c2.16,3.239,3.96,6.239,5.88,9.479h0.36c1.92-3.48,3.84-6.48,5.76-9.6
		l8.159-12.36h11.399l-19.799,28.079l20.398,29.999h-11.999l-8.52-13.079c-2.28-3.36-4.2-6.601-6.239-10.08h-0.24
		c-1.92,3.479-3.96,6.6-6.12,10.08l-8.399,13.079h-11.64l20.64-29.639l-19.68-28.439H1440.441z"/>
</g>
</svg>
