<?xml version="1.0" encoding="utf-8"?>
<!-- Generator: Adobe Illustrator 16.0.0, SVG Export Plug-In . SVG Version: 6.00 Build 0)  -->
<!DOCTYPE svg PUBLIC "-//W3C//DTD SVG 1.1//EN" "http://www.w3.org/Graphics/SVG/1.1/DTD/svg11.dtd">
<svg version="1.1" id="Layer_2" xmlns="http://www.w3.org/2000/svg" xmlns:xlink="http://www.w3.org/1999/xlink" x="0px" y="0px"
	 width="80px" height="30px" viewBox="0 0 80 30" enable-background="new 0 0 80 30" xml:space="preserve">
<g>
	<path fill="#E6E7E8" d="M4.043,20.656c0.154,0.325,0.397,0.488,0.73,0.488c0.831,0,1.398-0.453,1.701-1.358
		c0.303-0.905,0.454-2.145,0.454-3.718c0-0.763-0.036-1.827-0.107-3.194c-0.071-1.303-0.107-2.272-0.107-2.908
		c-1.271,0-1.906-0.333-1.906-1.001c0-0.397,0.05-0.659,0.151-0.786c0.101-0.127,0.258-0.191,0.472-0.191
		c0.13,0,0.273,0.012,0.427,0.036c0.154,0.024,0.267,0.036,0.338,0.036c0.237,0.047,0.463,0.071,0.677,0.071
		c0.392,0,0.754-0.024,1.086-0.071c0.428-0.032,0.748-0.048,0.962-0.048c0.427,0,0.727,0.056,0.899,0.167
		c0.172,0.111,0.258,0.326,0.258,0.644c0,0.333-0.063,0.568-0.187,0.703C9.769,9.661,9.588,9.761,9.351,9.824L8.531,9.943
		c-0.012,1.048,0.036,2.304,0.143,3.765c0.012,0.223,0.036,0.64,0.071,1.251c0.036,0.612,0.053,1.172,0.053,1.681
		c0,2.065-0.327,3.658-0.979,4.778s-1.626,1.68-2.92,1.68c-0.808,0-1.481-0.313-2.021-0.941c-0.541-0.627-0.811-1.568-0.811-2.824
		c0-0.349,0.095-0.631,0.285-0.846c0.189-0.215,0.445-0.322,0.766-0.322c0.226,0,0.398,0.104,0.517,0.311
		c0.119,0.206,0.178,0.405,0.178,0.596C3.812,19.802,3.889,20.33,4.043,20.656z"/>
	<path fill="#E6E7E8" d="M18.781,22.766c-0.279,0.238-0.538,0.357-0.775,0.357c-0.451,0-0.81-0.076-1.078-0.227
		c-0.267-0.151-0.514-0.433-0.739-0.847c-0.309,0.366-0.73,0.641-1.265,0.822c-0.534,0.183-1.027,0.274-1.478,0.274
		c-0.736,0-1.342-0.266-1.817-0.799c-0.475-0.531-0.712-1.314-0.712-2.347c0-0.445,0.089-0.854,0.268-1.228
		c0.178-0.373,0.421-0.703,0.73-0.989c0.344-0.302,0.736-0.536,1.175-0.703s0.896-0.25,1.372-0.25c0.249,0,0.546,0.063,0.89,0.19
		s0.612,0.262,0.802,0.405v-0.382c0-0.857-0.154-1.449-0.463-1.775c-0.309-0.326-0.807-0.489-1.496-0.489
		c-0.202,0-0.401,0.056-0.597,0.167s-0.418,0.262-0.668,0.453c-0.333,0.238-0.647,0.357-0.944,0.357
		c-0.107,0-0.208-0.099-0.303-0.298c-0.095-0.199-0.143-0.377-0.143-0.536c0-0.461,0.163-0.858,0.49-1.192
		c0.327-0.333,0.715-0.584,1.167-0.75c0.451-0.167,0.855-0.25,1.211-0.25c0.356,0,0.766,0.092,1.229,0.274s0.843,0.433,1.14,0.75
		c0.356,0.414,0.632,0.894,0.828,1.442c0.196,0.548,0.294,1.148,0.294,1.8c0,0.206-0.012,0.516-0.036,0.929
		c-0.024,0.445-0.036,0.827-0.036,1.145c0,0.143-0.012,0.357-0.036,0.644c-0.024,0.35-0.036,0.628-0.036,0.834
		c0,0.19,0.054,0.354,0.161,0.488c0.107,0.136,0.231,0.203,0.374,0.203l0.499-0.024c0.13,0,0.231,0.063,0.303,0.19
		c0.071,0.128,0.107,0.286,0.107,0.478C19.199,22.233,19.06,22.527,18.781,22.766z M14.747,21.049
		c0.344-0.143,0.76-0.404,1.247-0.786c0.047-0.27,0.077-0.627,0.089-1.072c-0.653-0.413-1.193-0.62-1.621-0.62
		c-0.487,0-0.92,0.119-1.3,0.357s-0.57,0.66-0.57,1.264c0,0.302,0.095,0.557,0.285,0.763c0.189,0.206,0.385,0.31,0.587,0.31
		C13.975,21.264,14.402,21.192,14.747,21.049z"/>
	<path fill="#E6E7E8" d="M22.574,20.728c0.136,0.326,0.312,0.488,0.525,0.488c0.118,0,0.231-0.012,0.338-0.035
		c0.107-0.024,0.213-0.036,0.32-0.036c0.119,0,0.223,0.08,0.312,0.238c0.089,0.159,0.133,0.334,0.133,0.524
		c0,0.381-0.133,0.68-0.401,0.894c-0.267,0.215-0.626,0.322-1.077,0.322c-0.321,0-0.645-0.132-0.971-0.394
		c-0.327-0.263-0.597-0.675-0.811-1.239c-0.213-0.563-0.32-1.267-0.32-2.109c0-1.812,0.023-3.345,0.071-4.6
		c0.059-1.493,0.089-3.376,0.089-5.648c0-0.715,0.029-1.215,0.089-1.501c0.071-0.222,0.187-0.393,0.348-0.512
		C21.381,7,21.55,6.94,21.728,6.94S22.063,6.98,22.2,7.06c0.136,0.08,0.229,0.207,0.276,0.381c0.047,0.19,0.08,0.377,0.098,0.56
		c0.018,0.183,0.026,0.441,0.026,0.774c0,0.652-0.018,1.279-0.053,1.883c-0.024,0.731-0.036,1.263-0.036,1.597
		c-0.095,2.797-0.143,5.156-0.143,7.078C22.369,19.938,22.438,20.402,22.574,20.728z"/>
	<path fill="#E6E7E8" d="M27.356,14.757c0,0.175-0.012,0.564-0.036,1.168c-0.024,0.7-0.036,1.248-0.036,1.644
		c0,1.112,0.113,2.011,0.338,2.693c0.083,0.223,0.234,0.397,0.454,0.524s0.407,0.19,0.561,0.19c0.237,0,0.433-0.039,0.588-0.119
		c0.154-0.079,0.299-0.198,0.436-0.357c0.136-0.158,0.27-0.334,0.401-0.524c0.226-0.333,0.371-0.719,0.437-1.155
		c0.065-0.438,0.104-1.021,0.116-1.752c0-0.461,0.018-0.906,0.053-1.335c0.071-0.699,0.107-1.35,0.107-1.954
		c0-0.333,0.068-0.616,0.205-0.846c0.137-0.23,0.335-0.346,0.597-0.346c0.13,0,0.288,0.06,0.472,0.179
		c0.184,0.119,0.306,0.25,0.365,0.393c0.083,0.19,0.125,0.453,0.125,0.787c0,0.207-0.018,0.397-0.054,0.572
		c-0.06,0.238-0.089,0.541-0.089,0.906c0,0.19,0.012,0.509,0.036,0.953c0.036,0.334,0.053,0.676,0.053,1.024
		c0,1.065,0.06,1.852,0.178,2.36c0.13,0.54,0.309,1.017,0.534,1.43c0.237,0.334,0.398,0.576,0.481,0.727
		c0.083,0.151,0.125,0.282,0.125,0.394c0,0.19-0.071,0.373-0.213,0.548s-0.291,0.263-0.445,0.263c-0.439,0-0.822-0.203-1.149-0.608
		s-0.567-0.925-0.721-1.561c-0.131,0.206-0.303,0.461-0.517,0.763c-0.213,0.302-0.416,0.548-0.605,0.738
		c-0.463,0.445-1.057,0.668-1.781,0.668c-0.297,0-0.621-0.119-0.971-0.357c-0.351-0.238-0.668-0.553-0.953-0.941
		c-0.285-0.39-0.481-0.807-0.588-1.252c-0.012-0.031-0.044-0.158-0.098-0.381c-0.053-0.223-0.08-0.556-0.08-1.001l-0.018-3.813
		c0-0.222-0.042-0.572-0.125-1.048c-0.071-0.318-0.106-0.556-0.106-0.715c0-0.27,0.068-0.492,0.205-0.667
		c0.136-0.175,0.317-0.262,0.543-0.262C26.964,12.684,27.356,13.375,27.356,14.757z"/>
	<path fill="#E6E7E8" d="M34.737,14.459c-0.101-0.151-0.151-0.337-0.151-0.56c0-0.286,0.083-0.524,0.25-0.715
		c0.036-0.048,0.095-0.091,0.178-0.131c0.083-0.04,0.148-0.075,0.196-0.107c0.261-0.111,0.427-0.199,0.499-0.262
		c0.273-0.223,0.457-0.588,0.552-1.097c0.095-0.604,0.154-1.017,0.178-1.239c0.023-0.349,0.109-0.615,0.258-0.798
		c0.148-0.182,0.335-0.274,0.561-0.274c0.296,0,0.504,0.104,0.623,0.31c0.119,0.207,0.178,0.588,0.178,1.144
		c0,0.731-0.131,1.422-0.392,2.074c0.167,0,0.439-0.016,0.819-0.048c0.57-0.032,0.968-0.048,1.193-0.048
		c0.202,0,0.377,0.068,0.525,0.203c0.148,0.135,0.223,0.33,0.223,0.584c0,0.604-0.208,0.961-0.623,1.073
		c-0.381,0.143-1.069,0.23-2.066,0.262c-0.083,1.557-0.125,2.788-0.125,3.694c0,0.556,0.018,0.953,0.053,1.191
		c0.071,0.492,0.193,0.854,0.365,1.084c0.172,0.23,0.43,0.346,0.775,0.346c0.166,0,0.416-0.056,0.748-0.167
		c0.202-0.079,0.362-0.119,0.481-0.119c0.154,0,0.272,0.071,0.356,0.215c0.082,0.143,0.124,0.333,0.124,0.572
		c0,0.429-0.208,0.782-0.623,1.061c-0.416,0.277-0.908,0.417-1.479,0.417c-0.356,0-0.707-0.115-1.051-0.346
		s-0.635-0.513-0.873-0.847c-0.047-0.031-0.116-0.206-0.205-0.524c-0.089-0.317-0.175-0.667-0.258-1.048
		c-0.036-0.191-0.054-0.651-0.054-1.383c0-0.699,0.036-1.906,0.107-3.623l0.018-0.524c-0.083,0-0.238-0.012-0.463-0.036
		c-0.226-0.023-0.392-0.043-0.499-0.06C34.972,14.702,34.838,14.611,34.737,14.459z"/>
	<path fill="#E6E7E8" d="M49.458,22.766c-0.285,0.238-0.547,0.357-0.784,0.357c-0.439,0-0.792-0.076-1.06-0.227
		c-0.268-0.151-0.52-0.433-0.757-0.847c-0.297,0.366-0.713,0.641-1.247,0.822c-0.534,0.183-1.026,0.274-1.478,0.274
		c-0.736,0-1.345-0.266-1.826-0.799c-0.48-0.531-0.721-1.314-0.721-2.347c0-0.445,0.101-0.895,0.303-1.347
		c0.201-0.453,0.451-0.814,0.748-1.085c0.32-0.286,0.683-0.48,1.086-0.584c0.403-0.103,0.873-0.154,1.407-0.154
		c0.249,0,0.546,0.063,0.891,0.19c0.344,0.127,0.617,0.262,0.819,0.405v-0.382c0-0.857-0.158-1.449-0.473-1.775
		s-0.816-0.489-1.505-0.489c-0.213,0-0.406,0.044-0.578,0.131c-0.173,0.088-0.371,0.211-0.597,0.37
		c-0.214,0.159-0.416,0.238-0.605,0.238c-0.167,0-0.327-0.091-0.481-0.274s-0.231-0.377-0.231-0.584
		c0-0.667,0.312-1.156,0.936-1.466c0.623-0.31,1.261-0.465,1.914-0.465c0.332,0,0.713,0.092,1.14,0.274
		c0.428,0.183,0.79,0.433,1.087,0.75c0.355,0.397,0.632,0.874,0.828,1.43c0.195,0.556,0.294,1.16,0.294,1.812
		c0,0.206-0.013,0.516-0.036,0.929c-0.023,0.445-0.035,0.827-0.035,1.145l-0.019,0.644c-0.023,0.35-0.035,0.628-0.035,0.834
		c0,0.19,0.051,0.354,0.151,0.488c0.101,0.136,0.223,0.203,0.365,0.203l0.499-0.024c0.13,0,0.233,0.068,0.312,0.203
		c0.077,0.135,0.115,0.29,0.115,0.465C49.885,22.233,49.742,22.527,49.458,22.766z M45.415,21.049
		c0.344-0.143,0.76-0.404,1.246-0.786c0.048-0.27,0.077-0.627,0.089-1.072c-0.652-0.413-1.192-0.62-1.62-0.62
		c-0.404,0-0.73,0.021-0.979,0.06c-0.249,0.04-0.476,0.179-0.677,0.417c-0.202,0.238-0.303,0.62-0.303,1.145
		c0,0.302,0.109,0.557,0.329,0.763s0.431,0.31,0.633,0.31C44.643,21.264,45.07,21.192,45.415,21.049z"/>
	<path fill="#E6E7E8" d="M61.817,18.833l0.071-1.835c0-0.668-0.057-1.16-0.169-1.478c-0.113-0.318-0.365-0.477-0.757-0.477
		c-0.748,0-1.313,0.56-1.692,1.68s-0.569,2.753-0.569,4.897c0,0.096,0.002,0.29,0.009,0.584c0.006,0.294-0.03,0.521-0.107,0.68
		c-0.077,0.158-0.211,0.238-0.4,0.238c-0.476,0-0.796-0.175-0.962-0.524s-0.249-0.866-0.249-1.55c0-0.349,0.035-1.063,0.106-2.145
		c0.06-0.763,0.089-1.295,0.089-1.597c0-0.795-0.089-1.374-0.267-1.74c-0.179-0.366-0.487-0.548-0.927-0.548
		c-0.51,0-0.932,0.342-1.264,1.024c-0.333,0.684-0.576,1.53-0.73,2.539s-0.231,2.006-0.231,2.99c0,0.461-0.057,0.834-0.169,1.12
		c-0.113,0.286-0.324,0.43-0.633,0.43c-0.226,0-0.451-0.084-0.677-0.251c-0.226-0.166-0.338-0.393-0.338-0.679
		c0-0.302,0.023-0.604,0.071-0.906c0.059-0.492,0.106-1.215,0.143-2.168c0.035-0.954,0.053-1.852,0.053-2.693
		c0-0.382-0.068-0.751-0.205-1.108c-0.136-0.357-0.3-0.536-0.489-0.536c-0.048,0-0.134,0.032-0.258,0.095
		c-0.125,0.064-0.217,0.095-0.276,0.095c-0.154,0-0.294-0.095-0.419-0.286c-0.124-0.191-0.187-0.35-0.187-0.477
		c0-0.397,0.146-0.734,0.437-1.013c0.29-0.278,0.597-0.417,0.917-0.417c0.438,0,0.822,0.199,1.148,0.596
		c0.326,0.397,0.573,0.93,0.739,1.597c0.285-0.683,0.62-1.219,1.006-1.608s0.858-0.584,1.416-0.584c1.021,0,1.764,0.612,2.227,1.835
		c0.272-0.587,0.697-1.041,1.273-1.358c0.575-0.317,1.143-0.477,1.7-0.477c0.404,0,0.79,0.163,1.158,0.489s0.661,0.754,0.882,1.287
		c0.219,0.533,0.329,1.084,0.329,1.656c0,0.366-0.03,1.168-0.089,2.407c-0.012,0.207-0.024,0.434-0.036,0.68
		s-0.018,0.504-0.018,0.774c0,0.333,0.063,0.604,0.188,0.811c0.124,0.206,0.287,0.333,0.489,0.381
		c0.403,0.127,0.605,0.35,0.605,0.667c0,0.366-0.125,0.656-0.374,0.87c-0.249,0.215-0.528,0.322-0.837,0.322
		c-0.582,0-1.024-0.227-1.327-0.68s-0.454-1.108-0.454-1.966L61.817,18.833z"/>
	<path fill="#E6E7E8" d="M66.145,16.151c0.166-0.611,0.386-1.171,0.659-1.68c0.272-0.508,0.706-0.925,1.3-1.251
		s1.122-0.489,1.585-0.489c0.475,0,0.959,0.088,1.451,0.262c0.493,0.175,0.835,0.445,1.024,0.811
		c0.439,0.826,0.659,1.637,0.659,2.431c0,0.429-0.068,0.794-0.205,1.096c-0.137,0.303-0.329,0.628-0.579,0.978
		c-0.201,0.286-0.52,0.477-0.952,0.572c-0.434,0.095-0.864,0.143-1.291,0.143c-0.273,0-0.605-0.036-0.998-0.107
		c-0.392-0.071-0.771-0.162-1.14-0.273c0.023,0.317,0.083,0.627,0.179,0.929c0.095,0.303,0.207,0.533,0.338,0.691
		c0.237,0.302,0.483,0.493,0.739,0.572c0.255,0.079,0.585,0.119,0.988,0.119c0.428,0,0.825-0.096,1.193-0.286
		c0.297-0.143,0.54-0.215,0.73-0.215c0.225,0,0.397,0.092,0.516,0.274c0.119,0.183,0.179,0.417,0.179,0.703
		c0,0.397-0.173,0.723-0.517,0.977c-0.345,0.255-0.739,0.441-1.185,0.561s-0.805,0.179-1.077,0.179
		c-0.559,0-1.099-0.135-1.621-0.405c-0.522-0.27-0.956-0.651-1.3-1.144c-0.285-0.445-0.511-0.981-0.677-1.609
		c-0.166-0.627-0.249-1.299-0.249-2.014C65.896,17.371,65.979,16.764,66.145,16.151z M68.994,14.96
		c-0.262,0.135-0.475,0.322-0.642,0.56c-0.213,0.302-0.358,0.544-0.436,0.727c-0.078,0.183-0.128,0.433-0.151,0.751
		c0.296,0.127,0.914,0.19,1.852,0.19c0.511,0,0.905-0.104,1.185-0.31c0.279-0.207,0.419-0.478,0.419-0.811
		c0-0.334-0.155-0.635-0.464-0.906c-0.309-0.27-0.635-0.405-0.979-0.405C69.517,14.757,69.255,14.825,68.994,14.96z"/>
	<path fill="#E6E7E8" d="M77.026,21.264c0,0.413-0.099,0.791-0.294,1.132c-0.196,0.342-0.442,0.513-0.739,0.513
		c-0.356,0-0.647-0.146-0.873-0.441c-0.226-0.293-0.338-0.639-0.338-1.036c0-0.35,0.098-0.667,0.294-0.953
		c0.195-0.286,0.442-0.43,0.739-0.43C76.622,20.048,77.026,20.453,77.026,21.264z M76.652,12.97
		c-0.071,1.589-0.107,2.805-0.107,3.646c0,0.223,0.012,0.684,0.036,1.383c-0.012,0.27-0.083,0.473-0.214,0.607
		s-0.285,0.202-0.463,0.202c-0.19,0-0.362-0.063-0.517-0.19c-0.154-0.127-0.249-0.294-0.285-0.5
		c-0.143-1.303-0.214-2.86-0.214-4.671l0.019-3.718c0-0.587,0.056-1.068,0.169-1.442c0.112-0.373,0.358-0.56,0.739-0.56
		c0.32,0,0.558,0.14,0.712,0.417c0.154,0.278,0.231,0.632,0.231,1.061C76.759,10.063,76.724,11.318,76.652,12.97z"/>
</g>
<g>
</g>
<g>
</g>
<g>
</g>
<g>
</g>
<g>
</g>
<g>
</g>
</svg>
