<?xml version="1.0" encoding="utf-8"?>
<!-- Generator: Adobe Illustrator 16.0.0, SVG Export Plug-In . SVG Version: 6.00 Build 0)  -->
<!DOCTYPE svg PUBLIC "-//W3C//DTD SVG 1.1//EN" "http://www.w3.org/Graphics/SVG/1.1/DTD/svg11.dtd">
<svg version="1.1" id="Layer_4" xmlns="http://www.w3.org/2000/svg" xmlns:xlink="http://www.w3.org/1999/xlink" x="0px" y="0px"
	 width="160px" height="60px" viewBox="0 0 160 60" enable-background="new 0 0 160 60" xml:space="preserve">
<g>
	<path fill="#E6E7E8" d="M6.261,39.968c0.321,0.678,0.827,1.017,1.519,1.017c1.729,0,2.908-0.941,3.538-2.825
		s0.945-4.461,0.945-7.733c0-1.586-0.074-3.8-0.223-6.643c-0.148-2.709-0.222-4.725-0.222-6.047c-2.643,0-3.963-0.694-3.963-2.082
		c0-0.826,0.105-1.371,0.315-1.636c0.209-0.264,0.537-0.396,0.981-0.396c0.271,0,0.568,0.025,0.889,0.074
		c0.321,0.05,0.556,0.074,0.704,0.074c0.494,0.099,0.963,0.149,1.408,0.149c0.815,0,1.568-0.05,2.26-0.149
		c0.889-0.065,1.556-0.099,2-0.099c0.889,0,1.513,0.116,1.871,0.347c0.358,0.231,0.537,0.678,0.537,1.338
		c0,0.694-0.129,1.182-0.389,1.462c-0.259,0.281-0.636,0.488-1.13,0.62l-1.704,0.248c-0.025,2.181,0.074,4.792,0.296,7.832
		c0.024,0.463,0.074,1.331,0.148,2.603c0.074,1.272,0.111,2.438,0.111,3.495c0,4.296-0.679,7.608-2.037,9.938
		c-1.358,2.329-3.384,3.494-6.075,3.494c-1.68,0-3.081-0.652-4.204-1.958c-1.124-1.305-1.686-3.263-1.686-5.873
		c0-0.727,0.197-1.314,0.593-1.76c0.395-0.446,0.926-0.67,1.593-0.67c0.469,0,0.827,0.216,1.074,0.645
		c0.247,0.43,0.371,0.843,0.371,1.239C5.779,38.192,5.939,39.292,6.261,39.968z"/>
	<path fill="#E6E7E8" d="M36.913,44.355c-0.581,0.495-1.118,0.743-1.611,0.743c-0.938,0-1.685-0.157-2.241-0.471
		s-1.069-0.9-1.538-1.76c-0.642,0.761-1.519,1.33-2.63,1.71s-2.136,0.57-3.074,0.57c-1.532,0-2.791-0.553-3.778-1.661
		c-0.988-1.106-1.482-2.733-1.482-4.882c0-0.925,0.185-1.776,0.556-2.553s0.876-1.463,1.519-2.058
		c0.716-0.627,1.531-1.115,2.445-1.462s1.864-0.521,2.853-0.521c0.519,0,1.135,0.132,1.852,0.396
		c0.716,0.265,1.271,0.545,1.667,0.843v-0.793c0-1.785-0.321-3.016-0.963-3.693c-0.643-0.677-1.68-1.016-3.111-1.016
		c-0.42,0-0.833,0.116-1.241,0.347c-0.407,0.232-0.87,0.545-1.389,0.942c-0.692,0.496-1.347,0.744-1.963,0.744
		c-0.222,0-0.433-0.206-0.63-0.62c-0.198-0.413-0.296-0.785-0.296-1.115c0-0.958,0.339-1.785,1.019-2.479s1.488-1.214,2.426-1.562
		s1.778-0.521,2.519-0.521s1.593,0.19,2.556,0.57c0.963,0.38,1.753,0.901,2.371,1.562c0.741,0.86,1.315,1.859,1.722,2.999
		c0.408,1.14,0.611,2.388,0.611,3.743c0,0.43-0.025,1.074-0.074,1.934c-0.05,0.926-0.074,1.719-0.074,2.379
		c0,0.298-0.025,0.744-0.074,1.339c-0.05,0.727-0.074,1.306-0.074,1.734c0,0.396,0.111,0.735,0.333,1.017s0.481,0.421,0.778,0.421
		l1.037-0.05c0.271,0,0.481,0.133,0.63,0.396c0.148,0.266,0.222,0.595,0.222,0.992C37.783,43.248,37.493,43.859,36.913,44.355z
		 M28.522,40.786c0.716-0.298,1.58-0.843,2.593-1.636c0.098-0.562,0.16-1.305,0.185-2.23c-1.358-0.859-2.482-1.289-3.371-1.289
		c-1.013,0-1.914,0.248-2.704,0.744c-0.791,0.495-1.186,1.371-1.186,2.627c0,0.628,0.197,1.157,0.593,1.586
		c0.395,0.43,0.802,0.645,1.222,0.645C26.917,41.232,27.806,41.084,28.522,40.786z"/>
	<path fill="#E6E7E8" d="M44.803,40.117c0.284,0.678,0.648,1.016,1.093,1.016c0.247,0,0.481-0.024,0.704-0.074
		s0.444-0.074,0.667-0.074c0.247,0,0.463,0.166,0.648,0.496s0.278,0.693,0.278,1.09c0,0.793-0.278,1.413-0.833,1.859
		s-1.303,0.669-2.241,0.669c-0.667,0-1.34-0.272-2.019-0.817c-0.68-0.546-1.241-1.404-1.686-2.578
		c-0.444-1.173-0.667-2.635-0.667-4.387c0-3.768,0.049-6.956,0.148-9.567c0.124-3.106,0.186-7.022,0.186-11.748
		c0-1.487,0.061-2.528,0.185-3.123c0.148-0.462,0.389-0.818,0.722-1.066c0.333-0.248,0.686-0.372,1.056-0.372
		c0.371,0,0.698,0.083,0.982,0.248c0.283,0.166,0.475,0.43,0.574,0.793c0.099,0.396,0.167,0.785,0.204,1.165
		s0.056,0.917,0.056,1.611c0,1.355-0.037,2.661-0.111,3.916c-0.05,1.521-0.074,2.627-0.074,3.321
		c-0.198,5.816-0.296,10.725-0.296,14.723C44.376,38.474,44.519,39.44,44.803,40.117z"/>
	<path fill="#E6E7E8" d="M54.749,27.7c0,0.364-0.025,1.173-0.074,2.429c-0.05,1.455-0.074,2.595-0.074,3.42
		c0,2.313,0.234,4.182,0.704,5.602c0.172,0.463,0.487,0.826,0.944,1.091c0.457,0.265,0.846,0.396,1.167,0.396
		c0.494,0,0.901-0.082,1.222-0.248c0.321-0.165,0.624-0.413,0.908-0.743c0.284-0.33,0.562-0.694,0.833-1.091
		c0.469-0.694,0.771-1.495,0.907-2.404c0.136-0.908,0.216-2.123,0.241-3.644c0-0.958,0.037-1.883,0.111-2.776
		c0.148-1.454,0.222-2.808,0.222-4.064c0-0.694,0.142-1.28,0.426-1.76c0.284-0.479,0.697-0.719,1.241-0.719
		c0.271,0,0.599,0.124,0.981,0.372c0.383,0.248,0.636,0.521,0.76,0.818c0.172,0.396,0.259,0.942,0.259,1.636
		c0,0.43-0.037,0.827-0.111,1.19c-0.124,0.496-0.185,1.124-0.185,1.884c0,0.396,0.024,1.058,0.074,1.982
		c0.074,0.694,0.111,1.405,0.111,2.132c0,2.215,0.124,3.851,0.371,4.907c0.271,1.124,0.642,2.115,1.111,2.975
		c0.494,0.693,0.827,1.197,1,1.512c0.172,0.314,0.259,0.587,0.259,0.817c0,0.396-0.148,0.777-0.444,1.141
		c-0.296,0.363-0.605,0.545-0.926,0.545c-0.914,0-1.71-0.421-2.389-1.264c-0.68-0.843-1.18-1.925-1.5-3.247
		c-0.272,0.43-0.629,0.959-1.074,1.586c-0.444,0.628-0.864,1.141-1.259,1.537c-0.963,0.926-2.198,1.388-3.704,1.388
		c-0.618,0-1.291-0.248-2.019-0.743c-0.729-0.496-1.389-1.148-1.981-1.958s-1-1.677-1.223-2.603
		c-0.025-0.065-0.092-0.33-0.204-0.793s-0.167-1.156-0.167-2.082l-0.037-7.931c0-0.462-0.087-1.19-0.259-2.181
		c-0.148-0.661-0.222-1.156-0.222-1.487c0-0.562,0.142-1.024,0.426-1.388c0.284-0.363,0.66-0.545,1.13-0.545
		C53.934,23.387,54.749,24.825,54.749,27.7z"/>
	<path fill="#E6E7E8" d="M70.102,27.08c-0.21-0.313-0.315-0.702-0.315-1.165c0-0.595,0.172-1.09,0.519-1.487
		c0.074-0.099,0.197-0.19,0.371-0.272c0.172-0.083,0.308-0.157,0.407-0.223c0.543-0.231,0.889-0.413,1.037-0.545
		c0.568-0.462,0.951-1.222,1.148-2.28c0.197-1.255,0.321-2.114,0.371-2.578c0.049-0.727,0.228-1.28,0.537-1.661
		c0.308-0.379,0.697-0.57,1.167-0.57c0.617,0,1.049,0.215,1.297,0.645c0.246,0.43,0.37,1.223,0.37,2.379
		c0,1.521-0.272,2.958-0.815,4.313c0.346,0,0.914-0.033,1.704-0.099c1.185-0.066,2.012-0.1,2.482-0.1
		c0.419,0,0.784,0.141,1.093,0.421c0.308,0.281,0.463,0.687,0.463,1.215c0,1.256-0.434,2-1.297,2.23
		c-0.791,0.297-2.223,0.479-4.297,0.545c-0.173,3.239-0.259,5.8-0.259,7.684c0,1.157,0.037,1.982,0.111,2.479
		c0.148,1.024,0.401,1.776,0.759,2.255c0.358,0.479,0.895,0.719,1.611,0.719c0.346,0,0.864-0.115,1.556-0.347
		c0.419-0.165,0.753-0.248,1-0.248c0.321,0,0.567,0.148,0.741,0.446c0.172,0.297,0.26,0.693,0.26,1.189
		c0,0.893-0.434,1.628-1.297,2.206c-0.865,0.578-1.889,0.867-3.075,0.867c-0.741,0-1.469-0.239-2.185-0.719
		c-0.717-0.479-1.322-1.065-1.815-1.76c-0.099-0.065-0.241-0.429-0.426-1.091c-0.185-0.66-0.365-1.388-0.537-2.181
		c-0.074-0.396-0.111-1.354-0.111-2.875c0-1.453,0.074-3.966,0.222-7.535l0.037-1.09c-0.173,0-0.494-0.025-0.963-0.075
		c-0.469-0.049-0.815-0.09-1.037-0.124C70.589,27.584,70.312,27.395,70.102,27.08z"/>
	<path fill="#E6E7E8" d="M100.717,44.355c-0.593,0.495-1.137,0.743-1.63,0.743c-0.914,0-1.648-0.157-2.204-0.471
		s-1.081-0.9-1.574-1.76c-0.618,0.761-1.481,1.33-2.593,1.71s-2.137,0.57-3.075,0.57c-1.531,0-2.796-0.553-3.797-1.661
		c-1-1.106-1.5-2.733-1.5-4.882c0-0.925,0.21-1.859,0.63-2.801s0.938-1.693,1.556-2.256c0.667-0.595,1.42-0.999,2.26-1.214
		c0.839-0.215,1.815-0.322,2.926-0.322c0.52,0,1.136,0.132,1.853,0.396c0.716,0.265,1.284,0.545,1.704,0.843v-0.793
		c0-1.785-0.328-3.016-0.981-3.693c-0.655-0.677-1.698-1.016-3.13-1.016c-0.445,0-0.847,0.091-1.204,0.272
		c-0.358,0.182-0.772,0.438-1.241,0.768c-0.444,0.331-0.864,0.496-1.26,0.496c-0.346,0-0.679-0.19-1-0.57
		c-0.321-0.379-0.481-0.785-0.481-1.214c0-1.388,0.648-2.404,1.945-3.048c1.296-0.645,2.623-0.967,3.981-0.967
		c0.691,0,1.481,0.19,2.371,0.57c0.889,0.38,1.642,0.901,2.26,1.562c0.74,0.827,1.314,1.818,1.722,2.974
		c0.408,1.157,0.611,2.413,0.611,3.768c0,0.43-0.024,1.074-0.074,1.934c-0.05,0.926-0.074,1.719-0.074,2.379l-0.036,1.339
		c-0.05,0.727-0.074,1.306-0.074,1.734c0,0.396,0.104,0.735,0.314,1.017s0.463,0.421,0.76,0.421l1.037-0.05
		c0.271,0,0.487,0.142,0.648,0.422c0.16,0.281,0.24,0.604,0.24,0.967C101.605,43.248,101.31,43.859,100.717,44.355z M92.308,40.786
		c0.717-0.298,1.58-0.843,2.594-1.636c0.098-0.562,0.16-1.305,0.185-2.23c-1.358-0.859-2.481-1.289-3.371-1.289
		c-0.839,0-1.519,0.042-2.037,0.124c-0.519,0.083-0.987,0.372-1.407,0.867c-0.42,0.496-0.63,1.289-0.63,2.38
		c0,0.628,0.229,1.157,0.686,1.586c0.456,0.43,0.895,0.645,1.314,0.645C90.702,41.232,91.592,41.084,92.308,40.786z"/>
	<path fill="#E6E7E8" d="M126.425,36.177l0.147-3.817c0-1.388-0.117-2.412-0.352-3.073c-0.235-0.661-0.759-0.992-1.574-0.992
		c-1.556,0-2.729,1.165-3.519,3.495c-0.791,2.33-1.186,5.726-1.186,10.187c0,0.198,0.006,0.604,0.019,1.215
		c0.012,0.611-0.063,1.083-0.223,1.412c-0.161,0.33-0.438,0.496-0.833,0.496c-0.988,0-1.655-0.363-2.001-1.091
		c-0.346-0.727-0.519-1.801-0.519-3.222c0-0.727,0.074-2.213,0.223-4.461c0.123-1.586,0.186-2.693,0.186-3.321
		c0-1.652-0.186-2.858-0.556-3.619c-0.371-0.76-1.014-1.14-1.927-1.14c-1.062,0-1.938,0.711-2.63,2.131
		c-0.691,1.421-1.198,3.181-1.519,5.28c-0.321,2.099-0.481,4.172-0.481,6.221c0,0.959-0.117,1.734-0.353,2.329
		c-0.234,0.595-0.673,0.893-1.314,0.893c-0.47,0-0.938-0.174-1.407-0.521c-0.47-0.347-0.704-0.817-0.704-1.413
		c0-0.627,0.049-1.255,0.148-1.883c0.123-1.024,0.222-2.528,0.296-4.511c0.074-1.983,0.111-3.85,0.111-5.602
		c0-0.793-0.143-1.562-0.426-2.305c-0.284-0.744-0.624-1.115-1.02-1.115c-0.099,0-0.277,0.066-0.537,0.198
		c-0.259,0.132-0.45,0.198-0.573,0.198c-0.321,0-0.611-0.198-0.871-0.595c-0.259-0.397-0.389-0.727-0.389-0.992
		c0-0.826,0.302-1.528,0.907-2.106c0.605-0.578,1.241-0.868,1.908-0.868c0.913,0,1.709,0.414,2.389,1.239
		c0.679,0.827,1.191,1.933,1.537,3.321c0.593-1.42,1.29-2.536,2.093-3.346c0.803-0.809,1.784-1.214,2.945-1.214
		c2.124,0,3.667,1.272,4.63,3.817c0.568-1.222,1.451-2.164,2.648-2.826c1.198-0.661,2.377-0.991,3.538-0.991
		c0.839,0,1.642,0.339,2.407,1.016c0.766,0.678,1.377,1.57,1.834,2.677c0.457,1.107,0.686,2.255,0.686,3.445
		c0,0.761-0.063,2.429-0.186,5.007c-0.024,0.43-0.05,0.9-0.074,1.412c-0.024,0.513-0.037,1.05-0.037,1.611
		c0,0.694,0.13,1.256,0.39,1.686c0.259,0.43,0.598,0.693,1.019,0.793c0.839,0.265,1.259,0.728,1.259,1.388
		c0,0.761-0.259,1.363-0.777,1.81s-1.1,0.669-1.741,0.669c-1.21,0-2.13-0.471-2.76-1.413c-0.63-0.941-0.944-2.305-0.944-4.089
		L126.425,36.177z"/>
	<path fill="#E6E7E8" d="M135.425,30.6c0.346-1.272,0.802-2.437,1.37-3.495c0.568-1.057,1.47-1.925,2.704-2.603
		c1.235-0.677,2.334-1.016,3.297-1.016c0.987,0,1.994,0.182,3.02,0.545c1.024,0.364,1.734,0.925,2.13,1.685
		c0.913,1.719,1.37,3.404,1.37,5.056c0,0.893-0.143,1.653-0.426,2.281c-0.284,0.628-0.686,1.306-1.204,2.032
		c-0.42,0.595-1.08,0.991-1.981,1.189c-0.902,0.198-1.797,0.298-2.686,0.298c-0.568,0-1.26-0.074-2.074-0.224
		c-0.815-0.148-1.605-0.338-2.371-0.569c0.049,0.661,0.173,1.306,0.37,1.933c0.198,0.628,0.433,1.107,0.704,1.438
		c0.494,0.628,1.006,1.024,1.537,1.189c0.531,0.166,1.216,0.248,2.056,0.248c0.89,0,1.717-0.198,2.482-0.595
		c0.617-0.297,1.123-0.446,1.519-0.446c0.469,0,0.827,0.19,1.074,0.57c0.246,0.38,0.37,0.867,0.37,1.462
		c0,0.826-0.358,1.504-1.074,2.032c-0.716,0.529-1.537,0.917-2.463,1.165s-1.674,0.372-2.241,0.372c-1.161,0-2.284-0.28-3.371-0.843
		c-1.087-0.562-1.988-1.354-2.704-2.38c-0.593-0.925-1.062-2.04-1.407-3.346c-0.346-1.305-0.519-2.701-0.519-4.188
		C134.906,33.137,135.079,31.872,135.425,30.6z M141.352,28.121c-0.544,0.281-0.988,0.669-1.334,1.165
		c-0.444,0.628-0.747,1.132-0.907,1.512c-0.161,0.381-0.266,0.901-0.314,1.562c0.616,0.265,1.901,0.396,3.853,0.396
		c1.061,0,1.882-0.214,2.463-0.645c0.58-0.429,0.87-0.991,0.87-1.685c0-0.694-0.321-1.321-0.963-1.884
		c-0.643-0.562-1.321-0.843-2.037-0.843C142.438,27.7,141.895,27.841,141.352,28.121z"/>
	<path fill="#E6E7E8" d="M158.058,41.232c0,0.859-0.204,1.645-0.611,2.354c-0.407,0.711-0.92,1.065-1.537,1.065
		c-0.741,0-1.347-0.305-1.815-0.917c-0.47-0.611-0.704-1.33-0.704-2.156c0-0.727,0.204-1.388,0.611-1.982s0.92-0.893,1.537-0.893
		C157.218,38.704,158.058,39.547,158.058,41.232z M157.279,23.982c-0.148,3.305-0.222,5.833-0.222,7.584
		c0,0.463,0.023,1.421,0.073,2.875c-0.024,0.563-0.173,0.983-0.444,1.264c-0.271,0.281-0.593,0.422-0.963,0.422
		c-0.396,0-0.754-0.132-1.074-0.396c-0.321-0.265-0.519-0.611-0.593-1.041c-0.296-2.709-0.444-5.949-0.444-9.716l0.037-7.733
		c0-1.222,0.117-2.222,0.352-2.999c0.234-0.776,0.747-1.165,1.537-1.165c0.667,0,1.161,0.29,1.482,0.868
		c0.32,0.579,0.481,1.313,0.481,2.206C157.502,17.935,157.428,20.545,157.279,23.982z"/>
</g>
<g>
</g>
<g>
</g>
<g>
</g>
<g>
</g>
<g>
</g>
<g>
</g>
</svg>
