<?xml version="1.0" encoding="utf-8"?>
<!-- Generator: Adobe Illustrator 16.0.0, SVG Export Plug-In . SVG Version: 6.00 Build 0)  -->
<!DOCTYPE svg PUBLIC "-//W3C//DTD SVG 1.1//EN" "http://www.w3.org/Graphics/SVG/1.1/DTD/svg11.dtd">
<svg version="1.1" xmlns="http://www.w3.org/2000/svg" xmlns:xlink="http://www.w3.org/1999/xlink" x="0px" y="0px" width="320px"
	 height="120px" viewBox="0 0 320 120" enable-background="new 0 0 320 120" xml:space="preserve">
<g id="Layer_1">
</g>
<g id="Layer_2">
	<g>
		<path fill="#E6E7E8" d="M12.726,80.331c0.641,1.354,1.652,2.03,3.034,2.03c3.454,0,5.81-1.882,7.068-5.646
			s1.887-8.914,1.887-15.451c0-3.169-0.148-7.592-0.444-13.271c-0.296-5.413-0.444-9.441-0.444-12.083
			c-5.281,0-7.919-1.386-7.919-4.16c0-1.649,0.209-2.739,0.629-3.269c0.418-0.527,1.073-0.792,1.961-0.792
			c0.542,0,1.134,0.049,1.776,0.148c0.641,0.099,1.11,0.148,1.406,0.148c0.986,0.198,1.924,0.297,2.813,0.297
			c1.628,0,3.133-0.099,4.515-0.297c1.776-0.131,3.108-0.198,3.997-0.198c1.776,0,3.022,0.232,3.738,0.693
			c0.715,0.463,1.073,1.354,1.073,2.674c0,1.387-0.259,2.362-0.777,2.922c-0.518,0.562-1.271,0.975-2.257,1.238l-3.404,0.496
			c-0.05,4.358,0.148,9.575,0.592,15.648c0.049,0.926,0.148,2.659,0.296,5.2c0.148,2.542,0.222,4.87,0.222,6.982
			c0,8.585-1.357,15.203-4.071,19.858c-2.714,4.655-6.76,6.982-12.138,6.982c-3.356,0-6.156-1.303-8.401-3.912
			c-2.246-2.607-3.367-6.52-3.367-11.736c0-1.452,0.394-2.625,1.184-3.517c0.789-0.891,1.85-1.337,3.183-1.337
			c0.937,0,1.652,0.431,2.146,1.288c0.493,0.858,0.74,1.684,0.74,2.476C11.764,76.782,12.084,78.979,12.726,80.331z"/>
		<path fill="#E6E7E8" d="M73.971,89.096c-1.16,0.991-2.233,1.486-3.22,1.486c-1.875,0-3.368-0.314-4.478-0.941
			c-1.11-0.627-2.135-1.798-3.072-3.516c-1.284,1.52-3.035,2.658-5.255,3.417c-2.22,0.758-4.269,1.139-6.143,1.139
			c-3.06,0-5.576-1.104-7.549-3.317c-1.974-2.212-2.96-5.463-2.96-9.756c0-1.848,0.37-3.549,1.11-5.102
			c0.74-1.55,1.75-2.921,3.034-4.109c1.431-1.254,3.059-2.229,4.885-2.922c1.825-0.693,3.725-1.04,5.699-1.04
			c1.036,0,2.269,0.265,3.701,0.792c1.431,0.529,2.541,1.09,3.331,1.684v-1.584c0-3.566-0.642-6.025-1.924-7.379
			c-1.284-1.353-3.356-2.03-6.217-2.03c-0.839,0-1.665,0.232-2.479,0.693c-0.814,0.463-1.739,1.089-2.775,1.882
			c-1.382,0.99-2.69,1.486-3.922,1.486c-0.444,0-0.864-0.412-1.258-1.238c-0.396-0.825-0.592-1.567-0.592-2.229
			c0-1.914,0.678-3.565,2.036-4.952c1.356-1.387,2.972-2.426,4.848-3.12c1.875-0.693,3.553-1.04,5.033-1.04
			c1.48,0,3.183,0.381,5.107,1.139c1.924,0.76,3.503,1.8,4.737,3.12c1.48,1.718,2.627,3.714,3.442,5.992
			c0.814,2.278,1.221,4.771,1.221,7.478c0,0.858-0.05,2.146-0.148,3.862c-0.1,1.85-0.148,3.435-0.148,4.754
			c0,0.595-0.049,1.486-0.148,2.675c-0.099,1.453-0.148,2.608-0.148,3.466c0,0.793,0.222,1.471,0.666,2.03
			c0.444,0.563,0.962,0.842,1.554,0.842l2.073-0.099c0.542,0,0.962,0.265,1.258,0.792c0.296,0.529,0.444,1.188,0.444,1.981
			C75.71,86.885,75.13,88.105,73.971,89.096z M57.207,81.965c1.431-0.594,3.157-1.684,5.181-3.269
			c0.196-1.122,0.32-2.607,0.37-4.457c-2.714-1.716-4.959-2.575-6.735-2.575c-2.024,0-3.824,0.496-5.403,1.486
			c-1.58,0.99-2.369,2.74-2.369,5.249c0,1.255,0.395,2.313,1.185,3.169c0.789,0.859,1.603,1.288,2.442,1.288
			C53.999,82.856,55.775,82.56,57.207,81.965z"/>
		<path fill="#E6E7E8" d="M89.736,80.628c0.566,1.354,1.295,2.03,2.183,2.03c0.493,0,0.962-0.05,1.406-0.148
			c0.444-0.099,0.888-0.148,1.333-0.148c0.493,0,0.925,0.331,1.295,0.99c0.37,0.661,0.555,1.387,0.555,2.179
			c0,1.585-0.555,2.823-1.665,3.715c-1.11,0.891-2.604,1.337-4.478,1.337c-1.332,0-2.677-0.545-4.034-1.635
			c-1.358-1.089-2.479-2.806-3.368-5.15c-0.888-2.343-1.332-5.265-1.332-8.765c0-7.527,0.098-13.899,0.296-19.116
			c0.247-6.206,0.37-14.03,0.37-23.473c0-2.971,0.123-5.051,0.37-6.24c0.296-0.924,0.777-1.634,1.443-2.129
			c0.666-0.495,1.369-0.743,2.109-0.743c0.74,0,1.394,0.166,1.961,0.495c0.567,0.331,0.95,0.859,1.147,1.584
			c0.197,0.792,0.333,1.569,0.407,2.328c0.074,0.76,0.111,1.833,0.111,3.219c0,2.708-0.074,5.316-0.222,7.825
			c-0.099,3.038-0.148,5.249-0.148,6.636c-0.396,11.622-0.592,21.428-0.592,29.416C88.884,77.344,89.168,79.275,89.736,80.628z"/>
		<path fill="#E6E7E8" d="M109.607,55.817c0,0.728-0.05,2.345-0.148,4.854c-0.1,2.906-0.148,5.184-0.148,6.834
			c0,4.622,0.469,8.354,1.406,11.191c0.345,0.926,0.974,1.651,1.888,2.18c0.912,0.528,1.689,0.792,2.331,0.792
			c0.987,0,1.801-0.164,2.442-0.495c0.641-0.33,1.246-0.825,1.813-1.486c0.567-0.659,1.122-1.386,1.666-2.179
			c0.937-1.387,1.542-2.986,1.813-4.804c0.271-1.815,0.432-4.241,0.481-7.279c0-1.914,0.074-3.764,0.222-5.546
			c0.296-2.905,0.444-5.611,0.444-8.122c0-1.387,0.283-2.558,0.851-3.516c0.566-0.957,1.394-1.436,2.479-1.436
			c0.542,0,1.196,0.248,1.961,0.743c0.764,0.495,1.27,1.04,1.517,1.634c0.345,0.792,0.518,1.882,0.518,3.269
			c0,0.859-0.074,1.651-0.222,2.377c-0.247,0.99-0.37,2.246-0.37,3.764c0,0.792,0.049,2.114,0.148,3.962
			c0.148,1.387,0.222,2.807,0.222,4.259c0,4.424,0.247,7.692,0.74,9.805c0.542,2.246,1.283,4.227,2.221,5.943
			c0.986,1.387,1.652,2.394,1.998,3.021c0.345,0.628,0.518,1.173,0.518,1.634c0,0.793-0.296,1.553-0.888,2.278
			c-0.592,0.726-1.209,1.09-1.85,1.09c-1.826,0-3.417-0.842-4.774-2.526c-1.358-1.684-2.357-3.845-2.998-6.487
			c-0.543,0.859-1.258,1.916-2.146,3.17c-0.888,1.255-1.728,2.278-2.516,3.07c-1.924,1.85-4.393,2.773-7.401,2.773
			c-1.234,0-2.579-0.495-4.034-1.486c-1.456-0.99-2.776-2.293-3.96-3.912c-1.184-1.617-1.998-3.351-2.442-5.199
			c-0.05-0.132-0.185-0.659-0.407-1.585c-0.222-0.924-0.333-2.311-0.333-4.16l-0.074-15.847c0-0.924-0.173-2.377-0.518-4.358
			c-0.296-1.32-0.444-2.311-0.444-2.971c0-1.122,0.284-2.046,0.851-2.773c0.567-0.726,1.32-1.09,2.258-1.09
			C107.979,47.201,109.607,50.073,109.607,55.817z"/>
		<path fill="#E6E7E8" d="M140.285,54.58c-0.42-0.627-0.629-1.402-0.629-2.328c0-1.188,0.345-2.179,1.036-2.971
			c0.148-0.198,0.394-0.379,0.74-0.545c0.344-0.164,0.616-0.313,0.814-0.445c1.085-0.461,1.776-0.825,2.072-1.09
			c1.135-0.924,1.899-2.442,2.294-4.556c0.395-2.509,0.641-4.225,0.74-5.15c0.098-1.452,0.456-2.558,1.073-3.318
			c0.616-0.758,1.394-1.139,2.332-1.139c1.232,0,2.096,0.43,2.59,1.288c0.493,0.859,0.74,2.443,0.74,4.754
			c0,3.038-0.544,5.91-1.628,8.617c0.69,0,1.825-0.065,3.404-0.198c2.369-0.132,4.021-0.198,4.959-0.198
			c0.838,0,1.567,0.282,2.184,0.842c0.615,0.562,0.924,1.371,0.924,2.427c0,2.51-0.863,3.996-2.59,4.457
			c-1.58,0.594-4.44,0.958-8.585,1.089c-0.346,6.472-0.518,11.588-0.518,15.352c0,2.312,0.074,3.961,0.222,4.952
			c0.296,2.047,0.801,3.55,1.517,4.506c0.715,0.958,1.788,1.437,3.22,1.437c0.69,0,1.727-0.23,3.108-0.693
			c0.839-0.33,1.505-0.495,1.999-0.495c0.641,0,1.135,0.297,1.48,0.892c0.344,0.594,0.518,1.386,0.518,2.377
			c0,1.782-0.863,3.253-2.59,4.407c-1.729,1.156-3.775,1.733-6.144,1.733c-1.48,0-2.936-0.479-4.367-1.437
			c-1.432-0.956-2.64-2.129-3.626-3.516c-0.198-0.132-0.481-0.857-0.852-2.18c-0.37-1.319-0.729-2.772-1.073-4.357
			c-0.148-0.792-0.222-2.707-0.222-5.744c0-2.905,0.148-7.924,0.444-15.055l0.074-2.179c-0.346,0-0.988-0.05-1.924-0.148
			c-0.938-0.099-1.628-0.181-2.072-0.248C141.259,55.587,140.704,55.208,140.285,54.58z"/>
		<path fill="#E6E7E8" d="M201.456,89.096c-1.184,0.991-2.27,1.486-3.257,1.486c-1.825,0-3.293-0.314-4.403-0.941
			s-2.159-1.798-3.146-3.516c-1.234,1.52-2.961,2.658-5.181,3.417c-2.221,0.758-4.269,1.139-6.144,1.139
			c-3.06,0-5.588-1.104-7.586-3.317c-1.998-2.212-2.998-5.463-2.998-9.756c0-1.848,0.419-3.715,1.259-5.597
			c0.838-1.882,1.874-3.383,3.108-4.506c1.332-1.188,2.837-1.996,4.515-2.427c1.677-0.429,3.627-0.644,5.847-0.644
			c1.036,0,2.27,0.265,3.701,0.792c1.431,0.529,2.564,1.09,3.404,1.684v-1.584c0-3.566-0.654-6.025-1.961-7.379
			c-1.309-1.353-3.394-2.03-6.254-2.03c-0.889,0-1.691,0.183-2.406,0.545c-0.716,0.364-1.542,0.876-2.479,1.535
			c-0.888,0.661-1.728,0.99-2.516,0.99c-0.691,0-1.358-0.379-1.999-1.139c-0.642-0.758-0.962-1.568-0.962-2.427
			c0-2.773,1.295-4.804,3.886-6.091s5.242-1.931,7.956-1.931c1.381,0,2.961,0.381,4.737,1.139c1.776,0.76,3.28,1.8,4.515,3.12
			c1.48,1.651,2.628,3.632,3.441,5.943c0.814,2.312,1.222,4.82,1.222,7.527c0,0.858-0.05,2.146-0.148,3.862
			c-0.1,1.85-0.147,3.435-0.147,4.754l-0.074,2.675c-0.1,1.453-0.148,2.608-0.148,3.466c0,0.793,0.21,1.471,0.629,2.03
			c0.419,0.563,0.926,0.842,1.518,0.842l2.072-0.099c0.543,0,0.974,0.281,1.296,0.842c0.32,0.562,0.48,1.206,0.48,1.932
			C203.232,86.885,202.641,88.105,201.456,89.096z M184.655,81.965c1.431-0.594,3.157-1.684,5.181-3.269
			c0.197-1.122,0.32-2.607,0.37-4.457c-2.714-1.716-4.959-2.575-6.735-2.575c-1.678,0-3.034,0.084-4.07,0.248
			c-1.036,0.166-1.974,0.743-2.813,1.733c-0.84,0.99-1.258,2.575-1.258,4.754c0,1.255,0.455,2.313,1.369,3.169
			c0.912,0.859,1.787,1.288,2.627,1.288C181.447,82.856,183.224,82.56,184.655,81.965z"/>
		<path fill="#E6E7E8" d="M252.82,72.754l0.297-7.626c0-2.773-0.235-4.819-0.703-6.141c-0.47-1.32-1.518-1.981-3.146-1.981
			c-3.108,0-5.452,2.328-7.031,6.982c-1.579,4.655-2.368,11.439-2.368,20.354c0,0.396,0.012,1.206,0.037,2.427
			c0.024,1.223-0.124,2.163-0.444,2.822c-0.321,0.66-0.876,0.991-1.665,0.991c-1.974,0-3.307-0.727-3.996-2.18
			c-0.692-1.451-1.037-3.598-1.037-6.438c0-1.451,0.148-4.423,0.444-8.914c0.246-3.169,0.37-5.381,0.37-6.636
			c0-3.301-0.37-5.71-1.11-7.23c-0.74-1.518-2.023-2.278-3.849-2.278c-2.122,0-3.874,1.42-5.255,4.259
			c-1.382,2.84-2.394,6.355-3.034,10.548c-0.642,4.194-0.962,8.337-0.962,12.43c0,1.916-0.235,3.467-0.703,4.655
			c-0.47,1.188-1.346,1.783-2.628,1.783c-0.938,0-1.876-0.347-2.813-1.04c-0.938-0.693-1.406-1.635-1.406-2.823
			c0-1.253,0.099-2.508,0.296-3.764c0.246-2.046,0.444-5.051,0.593-9.013c0.147-3.962,0.222-7.691,0.222-11.191
			c0-1.585-0.284-3.12-0.852-4.606c-0.567-1.485-1.246-2.229-2.035-2.229c-0.197,0-0.555,0.133-1.073,0.396
			c-0.518,0.265-0.9,0.396-1.147,0.396c-0.642,0-1.221-0.396-1.739-1.188c-0.518-0.792-0.776-1.452-0.776-1.981
			c0-1.65,0.604-3.053,1.813-4.209c1.209-1.154,2.479-1.733,3.813-1.733c1.824,0,3.416,0.826,4.773,2.476
			c1.356,1.651,2.38,3.862,3.071,6.636c1.185-2.838,2.578-5.067,4.182-6.686c1.604-1.617,3.564-2.426,5.885-2.426
			c4.242,0,7.327,2.542,9.251,7.626c1.135-2.442,2.898-4.324,5.292-5.646c2.393-1.32,4.749-1.98,7.068-1.98
			c1.677,0,3.281,0.678,4.811,2.03c1.529,1.354,2.75,3.137,3.664,5.348c0.912,2.213,1.369,4.506,1.369,6.884
			c0,1.52-0.124,4.853-0.37,10.003c-0.05,0.859-0.1,1.8-0.147,2.823c-0.05,1.024-0.074,2.097-0.074,3.219
			c0,1.387,0.259,2.51,0.777,3.367c0.518,0.859,1.195,1.387,2.035,1.585c1.677,0.529,2.517,1.453,2.517,2.773
			c0,1.52-0.519,2.724-1.555,3.615c-1.036,0.891-2.196,1.337-3.479,1.337c-2.418,0-4.256-0.941-5.514-2.823
			c-1.259-1.882-1.888-4.605-1.888-8.171L252.82,72.754z"/>
		<path fill="#E6E7E8" d="M270.807,61.611c0.69-2.541,1.603-4.868,2.738-6.982c1.134-2.112,2.935-3.846,5.402-5.2
			c2.467-1.353,4.663-2.03,6.588-2.03c1.973,0,3.983,0.364,6.031,1.089c2.048,0.728,3.467,1.85,4.256,3.368
			c1.825,3.434,2.739,6.801,2.739,10.102c0,1.783-0.285,3.303-0.852,4.557c-0.567,1.255-1.369,2.608-2.405,4.061
			c-0.84,1.188-2.159,1.98-3.96,2.377c-1.802,0.396-3.59,0.594-5.366,0.594c-1.136,0-2.516-0.148-4.145-0.445
			c-1.628-0.297-3.208-0.676-4.736-1.139c0.098,1.321,0.345,2.608,0.74,3.862c0.394,1.255,0.862,2.213,1.406,2.872
			c0.986,1.255,2.01,2.048,3.071,2.377c1.061,0.331,2.43,0.495,4.107,0.495c1.776,0,3.429-0.396,4.959-1.188
			c1.232-0.594,2.245-0.891,3.034-0.891c0.938,0,1.653,0.38,2.146,1.139c0.493,0.76,0.74,1.733,0.74,2.922
			c0,1.651-0.716,3.005-2.146,4.061c-1.432,1.057-3.071,1.832-4.922,2.327c-1.85,0.496-3.343,0.743-4.478,0.743
			c-2.32,0-4.564-0.561-6.735-1.684c-2.172-1.122-3.973-2.707-5.402-4.754c-1.185-1.848-2.122-4.076-2.813-6.686
			c-0.692-2.607-1.036-5.397-1.036-8.369C269.771,66.68,270.114,64.154,270.807,61.611z M282.648,56.66
			c-1.086,0.562-1.975,1.337-2.665,2.327c-0.888,1.255-1.492,2.262-1.813,3.021c-0.322,0.76-0.531,1.8-0.63,3.12
			c1.233,0.529,3.8,0.792,7.697,0.792c2.121,0,3.763-0.429,4.922-1.287c1.159-0.857,1.74-1.981,1.74-3.368
			c0-1.386-0.643-2.64-1.925-3.763c-1.283-1.122-2.641-1.684-4.07-1.684C284.819,55.817,283.733,56.099,282.648,56.66z"/>
		<path fill="#E6E7E8" d="M316.026,82.856c0,1.718-0.407,3.285-1.221,4.704c-0.814,1.421-1.839,2.13-3.071,2.13
			c-1.48,0-2.69-0.609-3.627-1.832c-0.938-1.222-1.406-2.657-1.406-4.309c0-1.452,0.407-2.773,1.221-3.962
			c0.814-1.188,1.838-1.783,3.072-1.783C314.349,77.805,316.026,79.489,316.026,82.856z M314.473,48.389
			c-0.296,6.604-0.444,11.655-0.444,15.154c0,0.926,0.049,2.84,0.148,5.744c-0.05,1.124-0.346,1.966-0.889,2.526
			c-0.543,0.562-1.185,0.842-1.924,0.842c-0.79,0-1.506-0.264-2.146-0.793c-0.643-0.527-1.036-1.221-1.185-2.08
			c-0.592-5.413-0.888-11.885-0.888-19.412l0.073-15.451c0-2.442,0.234-4.44,0.703-5.992c0.469-1.55,1.492-2.328,3.072-2.328
			c1.332,0,2.318,0.579,2.96,1.733c0.641,1.156,0.962,2.625,0.962,4.408C314.916,36.306,314.769,41.523,314.473,48.389z"/>
	</g>
	<g>
	</g>
	<g>
	</g>
	<g>
	</g>
	<g>
	</g>
	<g>
	</g>
	<g>
	</g>
</g>
</svg>
