<?xml version="1.0" encoding="utf-8"?>
<!-- Generator: Adobe Illustrator 16.0.0, SVG Export Plug-In . SVG Version: 6.00 Build 0)  -->
<!DOCTYPE svg PUBLIC "-//W3C//DTD SVG 1.1//EN" "http://www.w3.org/Graphics/SVG/1.1/DTD/svg11.dtd">
<svg version="1.1" xmlns="http://www.w3.org/2000/svg" xmlns:xlink="http://www.w3.org/1999/xlink" x="0px" y="0px" width="200px"
	 height="200px" viewBox="0 0 200 200" enable-background="new 0 0 200 200" xml:space="preserve">
<g id="Layer_1">
</g>
<g id="Layer_2">
	<g>
		<path fill-rule="evenodd" clip-rule="evenodd" fill="#87B965" d="M194.5,97.047c0,1.969,0,3.938,0,5.906
			c-0.105,0.618-0.229,1.233-0.313,1.854c-0.735,5.483-1.003,11.075-2.272,16.431c-5.843,24.662-19.442,44.048-40.63,57.972
			c-12.847,8.442-27.006,13.317-42.346,14.681c-1.997,0.178-3.99,0.405-5.985,0.609c-1.969,0-3.938,0-5.906,0
			c-0.575-0.104-1.146-0.232-1.726-0.31c-5.531-0.739-11.175-1.004-16.577-2.284c-24.609-5.832-43.968-19.396-57.89-40.521
			c-8.486-12.877-13.38-27.076-14.746-42.465c-0.177-1.991-0.404-3.978-0.608-5.967c0-1.969,0-3.938,0-5.906
			c0.105-0.618,0.229-1.234,0.313-1.854c0.735-5.483,1.004-11.075,2.272-16.431C13.93,54.1,27.528,34.714,48.716,20.79
			C61.563,12.348,75.722,7.473,91.062,6.109c1.997-0.178,3.99-0.405,5.985-0.609c1.969,0,3.938,0,5.906,0
			c0.575,0.104,1.146,0.232,1.726,0.31c5.531,0.739,11.175,1.004,16.577,2.284c24.609,5.832,43.968,19.396,57.89,40.521
			c8.486,12.877,13.38,27.076,14.746,42.465C194.068,93.071,194.296,95.058,194.5,97.047z M100.076,16.664
			c-45.997-0.048-83.067,37.321-83.415,82.634c-0.356,46.413,37.3,83.834,82.898,84.045c46.31,0.214,83.698-37.466,83.787-83.159
			C183.436,54.22,145.986,16.664,100.076,16.664z"/>
		<path fill-rule="evenodd" clip-rule="evenodd" fill="#87B965" d="M112.639,128.391c5.819,10.078,11.704,20.27,17.59,30.46
			c-8.564,5.748-16.234,7.21-24.757,2.077c-6.423-3.868-11.985-8.766-16.99-14.278c-13.651-15.038-23.874-32.179-30.978-51.191
			c-2.405-6.438-4.331-13.027-5.154-19.849c-0.474-3.921-0.628-7.948-0.313-11.879c0.397-4.944,3.116-8.826,7.101-11.736
			c2.134-1.56,4.396-2.945,6.776-4.527c5.982,10.356,11.879,20.566,17.856,30.917c-2.293,1.486-3.896,3.53-4.774,6.109
			c-1.396,4.093-1.162,8.267-0.22,12.354c2.499,10.846,7.633,20.248,16.041,27.669c3.771,3.328,8.049,5.696,13.348,5.052
			C109.642,129.388,111.07,128.815,112.639,128.391z"/>
		<path fill-rule="evenodd" clip-rule="evenodd" fill="#87B965" d="M81.203,35.798c1.848,0.092,2.947,1.057,3.795,2.532
			c4.983,8.676,9.994,17.335,14.996,26c0.54,0.935,1.119,1.851,1.607,2.812c0.983,1.938,0.503,4.041-1.34,5.165
			c-2.973,1.813-5.994,3.553-9.058,5.207c-2.081,1.125-4.097,0.515-5.295-1.547c-5.596-9.625-11.167-19.265-16.712-28.92
			c-1.276-2.223-0.666-4.353,1.555-5.669c2.786-1.65,5.599-3.256,8.426-4.835C79.798,36.196,80.525,36.041,81.203,35.798z"/>
		<path fill-rule="evenodd" clip-rule="evenodd" fill="#87B965" d="M135.571,158.033c-1.66-0.044-2.79-0.845-3.551-2.159
			c-5.574-9.634-11.141-19.272-16.672-28.931c-1.236-2.159-0.645-4.313,1.479-5.58c2.821-1.683,5.667-3.328,8.54-4.921
			c2.182-1.21,4.317-0.664,5.563,1.48c5.595,9.623,11.158,19.264,16.696,28.919c1.245,2.172,0.667,4.301-1.467,5.577
			c-2.819,1.688-5.676,3.314-8.545,4.915C136.996,157.68,136.256,157.806,135.571,158.033z"/>
	</g>
	<g>
	</g>
	<g>
	</g>
	<g>
	</g>
	<g>
	</g>
	<g>
	</g>
	<g>
	</g>
</g>
</svg>
