<?xml version="1.0" encoding="utf-8"?>
<!-- Generator: Adobe Illustrator 16.0.0, SVG Export Plug-In . SVG Version: 6.00 Build 0)  -->
<!DOCTYPE svg PUBLIC "-//W3C//DTD SVG 1.1//EN" "http://www.w3.org/Graphics/SVG/1.1/DTD/svg11.dtd">
<svg version="1.1" id="Layer_1" xmlns="http://www.w3.org/2000/svg" xmlns:xlink="http://www.w3.org/1999/xlink" x="0px" y="0px"
	 width="80px" height="30px" viewBox="0 0 80 30" enable-background="new 0 0 80 30" xml:space="preserve">
<rect fill="#D1D3D4" width="80" height="30"/>
<g enable-background="new    ">
	<path fill="#FFFFFF" d="M3.006,18.822c0.648,0.45,1.566,0.774,2.575,0.774c1.368,0,2.629-0.81,2.629-2.286
		c0-0.9-0.522-1.566-1.783-2.269c-1.548-0.829-2.413-1.801-2.413-3.115c0-2.161,1.873-3.565,4.105-3.565
		c1.17,0,2.053,0.36,2.485,0.648l-0.54,1.206C9.686,10,8.93,9.64,7.958,9.658c-1.494,0-2.395,0.99-2.395,1.98
		s0.612,1.549,1.873,2.251c1.495,0.792,2.323,1.746,2.323,3.24c0,2.107-1.657,3.745-4.375,3.745c-1.224,0-2.413-0.396-2.917-0.828
		L3.006,18.822z"/>
	<path fill="#FFFFFF" d="M14.977,8.56l-2.305,12.136h-1.495L13.482,8.56H14.977z"/>
	<path fill="#FFFFFF" d="M19.549,9.856h-3.547l0.252-1.297h8.606l-0.252,1.297h-3.565l-2.053,10.839h-1.495L19.549,9.856z"/>
	<path fill="#FFFFFF" d="M30.908,14.987h-4.412l-0.828,4.43h4.97l-0.252,1.278h-6.464L26.226,8.56h6.194l-0.252,1.278h-4.682
		l-0.738,3.89h4.412L30.908,14.987z"/>
</g>
<g enable-background="new    ">
	<path fill="#FFFFFF" d="M37.963,8.56h1.495l-2.071,10.839h4.897l-0.252,1.297h-6.374L37.963,8.56z"/>
</g>
<g enable-background="new    ">
	<path fill="#FFFFFF" d="M54.074,13.331c0,2.106-0.756,4.43-2.196,5.87c-1.08,1.063-2.485,1.692-4.159,1.692
		c-3.133,0-4.609-2.358-4.609-4.934c0-2.143,0.846-4.501,2.322-5.96c1.027-1.008,2.539-1.639,4.07-1.639
		C52.76,8.361,54.074,10.738,54.074,13.331z M46.53,10.847c-1.171,1.17-1.854,3.295-1.854,4.987c0,1.98,0.883,3.799,3.259,3.799
		c1.026,0,2.017-0.45,2.772-1.206c1.135-1.152,1.801-3.331,1.801-5.023c0-1.729-0.558-3.781-3.205-3.781
		C48.223,9.622,47.269,10.09,46.53,10.847z"/>
	<path fill="#FFFFFF" d="M63.758,20.173c-0.702,0.288-1.998,0.648-3.421,0.648c-1.71,0-3.043-0.486-3.962-1.513
		c-0.918-1.026-1.224-2.341-1.224-3.547c0-2.017,0.81-4.123,2.376-5.527c1.297-1.135,3.043-1.801,4.988-1.801
		c1.494,0,2.502,0.342,2.863,0.559l-0.486,1.26c-0.631-0.306-1.459-0.521-2.557-0.521c-1.441,0-2.756,0.521-3.764,1.476
		c-1.135,1.063-1.818,2.791-1.818,4.448c0,2.34,1.17,3.889,3.871,3.889c0.721,0,1.404-0.145,1.854-0.342l0.685-3.619h-2.467
		l0.234-1.225h3.925L63.758,20.173z"/>
	<path fill="#FFFFFF" d="M77.313,13.331c0,2.106-0.756,4.43-2.197,5.87c-1.08,1.063-2.484,1.692-4.158,1.692
		c-3.133,0-4.609-2.358-4.609-4.934c0-2.143,0.846-4.501,2.322-5.96c1.026-1.008,2.539-1.639,4.069-1.639
		C75.998,8.361,77.313,10.738,77.313,13.331z M69.768,10.847c-1.17,1.17-1.854,3.295-1.854,4.987c0,1.98,0.882,3.799,3.259,3.799
		c1.026,0,2.017-0.45,2.772-1.206c1.135-1.152,1.801-3.331,1.801-5.023c0-1.729-0.559-3.781-3.205-3.781
		C71.461,9.622,70.506,10.09,69.768,10.847z"/>
</g>
</svg>
