<?xml version="1.0" encoding="utf-8"?>
<!-- Generator: Adobe Illustrator 16.0.0, SVG Export Plug-In . SVG Version: 6.00 Build 0)  -->
<!DOCTYPE svg PUBLIC "-//W3C//DTD SVG 1.1//EN" "http://www.w3.org/Graphics/SVG/1.1/DTD/svg11.dtd">
<svg version="1.1" xmlns="http://www.w3.org/2000/svg" xmlns:xlink="http://www.w3.org/1999/xlink" x="0px" y="0px" width="160px"
	 height="60px" viewBox="0 0 160 60" enable-background="new 0 0 160 60" xml:space="preserve">
<g id="Layer_1">
	<rect fill="#D1D3D4" width="160" height="60"/>
</g>
<g id="Layer_2">
	<g enable-background="new    ">
		<path fill="#FFFFFF" d="M7.813,38.213c1.268,0.879,3.064,1.514,5.04,1.514c2.678,0,5.145-1.585,5.145-4.473
			c0-1.762-1.021-3.065-3.49-4.441c-3.029-1.623-4.722-3.524-4.722-6.097c0-4.229,3.666-6.977,8.034-6.977
			c2.29,0,4.018,0.703,4.863,1.267l-1.057,2.361c-0.74-0.421-2.219-1.124-4.122-1.09c-2.924,0-4.688,1.938-4.688,3.876
			c0,1.937,1.198,3.031,3.666,4.403c2.926,1.553,4.546,3.418,4.546,6.342c0,4.125-3.243,7.33-8.563,7.33
			c-2.395,0-4.722-0.774-5.709-1.621L7.813,38.213z"/>
		<path fill="#FFFFFF" d="M31.243,18.129l-4.512,23.75h-2.926l4.512-23.75H31.243z"/>
		<path fill="#FFFFFF" d="M40.19,20.663h-6.942l0.493-2.538h16.843l-0.493,2.538h-6.977l-4.018,21.216h-2.926L40.19,20.663z"/>
		<path fill="#FFFFFF" d="M62.422,30.705h-8.635l-1.621,8.672h9.727L61.4,41.879H48.749l4.51-23.75h12.122l-0.493,2.5h-9.164
			l-1.444,7.614h8.635L62.422,30.705z"/>
	</g>
	<g enable-background="new    ">
		<path fill="#FFFFFF" d="M76.229,18.129h2.926l-4.053,21.212h9.584l-0.493,2.538H71.719L76.229,18.129z"/>
	</g>
	<g enable-background="new    ">
		<path fill="#FFFFFF" d="M107.762,27.466c0,4.122-1.479,8.669-4.299,11.488c-2.114,2.08-4.864,3.311-8.14,3.311
			c-6.132,0-9.021-4.614-9.021-9.655c0-4.193,1.657-8.81,4.545-11.665c2.011-1.972,4.969-3.209,7.966-3.209
			C105.188,17.739,107.762,22.392,107.762,27.466z M92.995,22.605c-2.29,2.289-3.628,6.448-3.628,9.759
			c0,3.876,1.728,7.435,6.38,7.435c2.007,0,3.947-0.879,5.424-2.36c2.222-2.253,3.524-6.52,3.524-9.829c0-3.385-1.091-7.4-6.272-7.4
			C96.309,20.207,94.443,21.122,92.995,22.605z"/>
		<path fill="#FFFFFF" d="M126.714,40.856c-1.373,0.563-3.911,1.267-6.695,1.267c-3.347,0-5.956-0.95-7.754-2.958
			c-1.797-2.009-2.397-4.584-2.397-6.944c0-3.946,1.587-8.067,4.652-10.815c2.538-2.221,5.956-3.524,9.763-3.524
			c2.923,0,4.896,0.669,5.603,1.093l-0.95,2.465c-1.234-0.601-2.855-1.021-5.006-1.021c-2.819,0-5.394,1.021-7.368,2.89
			c-2.221,2.079-3.557,5.463-3.557,8.706c0,4.579,2.29,7.61,7.576,7.61c1.413,0,2.747-0.284,3.63-0.669l1.34-7.083h-4.83
			l0.459-2.398h7.683L126.714,40.856z"/>
		<path fill="#FFFFFF" d="M153.241,27.466c0,4.122-1.479,8.669-4.297,11.488c-2.114,2.08-4.863,3.311-8.139,3.311
			c-6.132,0-9.02-4.614-9.02-9.655c0-4.193,1.655-8.81,4.543-11.665c2.009-1.972,4.97-3.209,7.964-3.209
			C150.668,17.739,153.241,22.392,153.241,27.466z M138.476,22.605c-2.29,2.289-3.628,6.448-3.628,9.759
			c0,3.876,1.727,7.435,6.378,7.435c2.009,0,3.947-0.879,5.427-2.36c2.22-2.253,3.523-6.52,3.523-9.829c0-3.385-1.094-7.4-6.272-7.4
			C141.79,20.207,139.92,21.122,138.476,22.605z"/>
	</g>
	<g>
	</g>
	<g>
	</g>
	<g>
	</g>
	<g>
	</g>
	<g>
	</g>
	<g>
	</g>
</g>
</svg>
